<svg id="Layer_1" data-name="Layer 1" xmlns="http://www.w3.org/2000/svg" viewBox="0 0 1920 1278"><defs><style>.cls-1{fill:#efded4;}.cls-2{fill:#fbb466;}.cls-3{fill:#e88324;}.cls-4{fill:#f9a147;}.cls-5{fill:#f69484;}.cls-6{fill:#91b876;}.cls-7{fill:#a42d47;}.cls-8{fill:#4d4ea1;}.cls-9{fill:#d84528;}.cls-10{fill:#fff;}.cls-11{fill:#6866ae;}.cls-12{fill:#010101;}.cls-13{fill:#a9b2da;}.cls-14,.cls-25{fill:#f0533d;}.cls-15{fill:#f99e41;}.cls-16{fill:#f47e6d;}.cls-17{fill:#f6c537;}.cls-18{fill:#608458;}.cls-19{fill:#8380bd;}.cls-20{fill:#efb31e;}.cls-21{fill:#ae4e41;}.cls-22{fill:#b85642;}.cls-23{fill:#f5be2e;}.cls-24{fill:#a44646;}.cls-25{font-size:143.91px;font-family:Krungthep;}</style></defs><rect class="cls-1" x="-7.7" y="-10" width="1937.7" height="1303.81"/><rect class="cls-2" x="2.57" y="940.69" width="183.65" height="183.65" rx="0.93"/><rect class="cls-3" x="133.13" y="879.36" width="269.72" height="244.97" rx="1.3"/><rect class="cls-4" x="285.04" y="879.36" width="231.63" height="244.97" rx="1.21"/><path class="cls-5" d="M769.08,774.09s27.84-11,42.44-9.11c7.21.94,31.55,9.58,30.5,16.08s-28.69,6-28.69,6,61.9,10.18,68,19.22c7.39,10.89-11.2,8.91-11.2,8.91s15.9,10.26,10,14.33-19.12,4.14-19.12,4.14,19.95,7.48,3,14.64S747,850.81,734.93,815C729,797.35,769.08,774.09,769.08,774.09Z"/><path class="cls-6" d="M177.71,1021.58c-6.28-13.55-6.26-26.91,0-29.83s16.5,5.7,22.78,19.25,6.26,26.91,0,29.83S184,1035.13,177.71,1021.58Z"/><path class="cls-6" d="M202.18,1010.54c-14.93.18-27.11-5.31-27.19-12.26s12-12.73,26.89-12.91,27.11,5.31,27.2,12.26S217.12,1010.36,202.18,1010.54Z"/><path class="cls-7" d="M195.51,992.85A20.54,20.54,0,1,1,175,972.31,20.54,20.54,0,0,1,195.51,992.85Z"/><path class="cls-8" d="M573.22,828.22s96.52,100.17,107.58,192.07-127.06,99.47-127.06,99.47L495.49,806.35Z"/><path class="cls-9" d="M264,971.94l-35.72,90.28L212,1059.35,158.09,1096s-14.4,21-35.51,28-32.91-4.26-38.58-6.79,92-183.75,101.42-185.38S264,971.94,264,971.94Z"/><path class="cls-10" d="M100.93,1126.78a1.6,1.6,0,0,1-.79-.2,1.64,1.64,0,0,1-.65-2.22l102.1-187.14a1.64,1.64,0,1,1,2.87,1.57l-102.1,187.14A1.63,1.63,0,0,1,100.93,1126.78Z"/><polygon class="cls-5" points="250.55 1005.92 203.03 1005.92 200.71 1094.87 264 1105.46 250.55 1005.92"/><path class="cls-8" d="M520.39,859.08s97.08,140.67,68.09,221.15-180.92,59.43-257,53.83c-67.44-5-97.58-14.33-97.58-14.33V976.91l123.68-7.37s-32.85-151.31-9-155.74,138.3-7.45,138.3-7.45Z"/><path class="cls-11" d="M558.85,1118.27a1.64,1.64,0,0,1-1-2.94c87.68-66.08-16.74-221.44-17.8-223a1.64,1.64,0,0,1-.16-1.55,1.67,1.67,0,0,1,1.22-1l52.47-9.39a1.66,1.66,0,0,1,1.89,1.32,1.63,1.63,0,0,1-1.32,1.9l-50,9c12.29,19,100.18,161.68,15.69,225.36A1.66,1.66,0,0,1,558.85,1118.27Z"/><path class="cls-5" d="M776.82,780.58s-70.14-11.36-110.46-43.82S620,690.23,620,690.23l-47.15,91.33S635.74,828.22,696,833.42c53.07,4.58,74.74.14,74.74.14Z"/><path class="cls-12" d="M548.63,504.56s29.48-20.71,24.59-25.94-12-1.4-12-1.4-42.52-19.65-60.07-19.65-36,23.49-36,23.49-7.92-3.07-14.52,7.06,1.84,71.56,18,73S548.63,504.56,548.63,504.56Z"/><path class="cls-13" d="M658.77,711.94s-17.9,35.1-31,61.36-22.3,41.76-21.29,40.57-52.78-30.07-66.46-61S530.43,602,530.43,602s28.94,18.6,59.55,53.2S658.77,711.94,658.77,711.94Z"/><path class="cls-12" d="M667.74,882.84a1.45,1.45,0,0,1-.41-.06l-10-2.48a1.7,1.7,0,0,1,.82-3.29l10,2.48a1.7,1.7,0,0,1-.41,3.35Z"/><path class="cls-13" d="M573.22,828.22s-28.12-73.09-30.07-123.57,3.61-84.29-2.56-94.5S473,583.74,429.15,581.67s-79.22,60.19-88.07,116.69-.94,135.77-.94,135.77Z"/><path class="cls-5" d="M616.47,854.56s-65.74-27-97.65-67.71S484.23,731,484.23,731L417.6,809.28s56.67,64.87,108.18,78.43S602,895.24,602,895.24Z"/><path class="cls-13" d="M514.82,755.55s-31.93,19.58-53.37,35.81c-17.39,13.17-44.54,31.19-44.54,31.19s-89.27-79.1-70.06-162.72,73.37-77.34,73.37-77.34Z"/><path class="cls-5" d="M471.27,552.42l-11.31,37s3.41,12.66,24.49,21c15.7,6.23,22.47,4.32,22.47,4.32l3.48-19.4,3.37-18.92-36.4-20.53Z"/><path class="cls-12" d="M477.37,555.87a12.8,12.8,0,0,0,0,3.89c2.62,21,24,31.89,33,35.56l3.37-18.92Z"/><path class="cls-5" d="M547.78,494.7S553,547,537.48,570.36s-37.65,11.78-50.07,2.27-16.15-20.21-16.15-20.21-14.54.21-19.37-14.8,5.09-27.26,13.61-28.05,15.67,7.48,15.67,7.48l-2.68-15.56S529.68,443.33,547.78,494.7Z"/><path class="cls-12" d="M527.36,552.45a1.72,1.72,0,0,1-1-.32,1.68,1.68,0,0,1-.39-2.36c5.32-7.47,2.06-18.59,2-18.7a1.69,1.69,0,0,1,3.24-1c.16.52,3.78,12.81-2.51,21.64A1.69,1.69,0,0,1,527.36,552.45Z"/><path class="cls-12" d="M472.62,538.09a1.71,1.71,0,0,1-1.53-1L463,519.85a1.69,1.69,0,1,1,3.07-1.43l8.07,17.25a1.68,1.68,0,0,1-.82,2.25A1.65,1.65,0,0,1,472.62,538.09Z"/><path class="cls-12" d="M469.66,531.76c-.28,0-9.3-1.57-9.3-1.57a1.69,1.69,0,0,1,.57-3.34l9,1.54a1.68,1.68,0,0,1,1.38,2A1.7,1.7,0,0,1,469.66,531.76Z"/><path class="cls-12" d="M511,562.14a9.38,9.38,0,0,1-6.84-2.69c-4.94-4.92-4.75-12.06-4.74-12.36a1.69,1.69,0,0,1,1-1.47,1.71,1.71,0,0,1,1.74.17L518,557.63a1.7,1.7,0,0,1-.23,2.87A16.51,16.51,0,0,1,511,562.14Zm-7.74-11.27a13,13,0,0,0,3.29,6.17c2,2,4.84,1.9,6.91,1.41Z"/><path class="cls-12" d="M512.29,528.56l-.33,0a1.7,1.7,0,0,1-1.34-2l1.72-8.87a1.73,1.73,0,0,1,2-1.34,1.69,1.69,0,0,1,1.34,2L514,527.19A1.7,1.7,0,0,1,512.29,528.56Z"/><path class="cls-12" d="M538.23,534.88a1.74,1.74,0,0,1-1.67-2l1.56-8.91a1.72,1.72,0,0,1,2-1.38,1.7,1.7,0,0,1,1.38,2l-1.56,8.91A1.7,1.7,0,0,1,538.23,534.88Z"/><path class="cls-12" d="M509.74,509.61a1.66,1.66,0,0,1-1.2-.5,1.69,1.69,0,0,1,0-2.4c5.17-5.09,12.38-.93,12.69-.75a1.69,1.69,0,0,1-1.72,2.92c-.22-.12-5.28-3-8.6.25A1.7,1.7,0,0,1,509.74,509.61Z"/><path class="cls-12" d="M546.68,516a1.69,1.69,0,0,1-1.46-.83c-.56-.95-2.5-3.51-4.73-3.95a4,4,0,0,0-3.3,1,1.69,1.69,0,0,1-2.05-2.69,7.3,7.3,0,0,1,6-1.59c4.19.84,6.87,5.37,7,5.56a1.69,1.69,0,0,1-1.47,2.54Z"/><path class="cls-12" d="M547.78,494.7s-12.8-9.93-20.42-6.58-27.14,44.36-46.19,28.93,0-39.83,0-39.83S549,446,547.78,494.7Z"/><path class="cls-8" d="M509.55,616.89a69.68,69.68,0,0,1-30.85-7.22c-17.74-9-22.5-21-22.7-21.55a1.7,1.7,0,1,1,3.17-1.21c0,.11,4.57,11.4,21.06,19.74a66.82,66.82,0,0,0,33.59,6.67,1.66,1.66,0,0,1,1.87,1.49,1.68,1.68,0,0,1-1.49,1.87A42,42,0,0,1,509.55,616.89Z"/><path class="cls-14" d="M220.26,999.77l-19.55,95.1H184.13l-46.7,45.37s-10.55,23.18-30.14,33.73-33.14,1.51-39.17,0,58.76-196.9,67.8-200.15S220.26,999.77,220.26,999.77Z"/><path class="cls-10" d="M86.18,1180.53a1.64,1.64,0,0,1-1.55-2.16l68.16-202a1.64,1.64,0,0,1,3.1,1l-68.16,202A1.64,1.64,0,0,1,86.18,1180.53Z"/><path class="cls-11" d="M397.38,978.26c-13.37,0-34.83-5.65-40.28-7.14a1.64,1.64,0,0,1-.22-3.09c1.59-.68,38.93-16.44,50.09.61,1.79,2.72,2,5,.73,6.78C406.2,977.48,402.35,978.26,397.38,978.26Zm-34.51-9c17.28,4.38,39.37,8.13,42.19,4.25.54-.75-.28-2.24-.82-3.06C396.67,958.87,373,965.66,362.87,969.25Z"/><path class="cls-8" d="M558.85,779.47a1.7,1.7,0,0,1-1.67-1.41L547,717.74a1.69,1.69,0,0,1,1.38-2,1.72,1.72,0,0,1,2,1.39l10.22,60.31a1.68,1.68,0,0,1-1.38,2Z"/><path class="cls-8" d="M416.91,824.24a1.68,1.68,0,0,1-1.12-.42c-2.25-2-55.22-49.08-64.21-92.45a1.7,1.7,0,0,1,1.32-2,1.68,1.68,0,0,1,2,1.32c8.11,39.1,54.78,83,62.15,89.71l96.81-66.24a1.7,1.7,0,0,1,1.92,2.8l-97.91,67A1.77,1.77,0,0,1,416.91,824.24Z"/><path class="cls-11" d="M359.66,881.53a1.64,1.64,0,0,1-.12-3.27c33.49-2.4,35.33-28.16,35.39-29.26a1.68,1.68,0,0,1,1.73-1.54,1.63,1.63,0,0,1,1.54,1.72c0,.29-2,29.73-38.42,32.35Z"/><polygon class="cls-15" points="813.12 882.81 959.32 882.81 920.72 934.25 821.8 942.39 813.12 882.81"/><rect class="cls-15" x="671.8" y="925.06" width="248.92" height="215.49" rx="1.36"/><rect class="cls-2" x="609.65" y="925.23" width="248.92" height="215.49" rx="1.36"/><path class="cls-2" d="M609.65,934.43,568.83,875.1a4.1,4.1,0,0,1,3.38-6.43h251l35.36,65.76Z"/><path class="cls-10" d="M858.58,932.15a1.59,1.59,0,0,1,0-3.18l62.15-.18a1.59,1.59,0,0,1,0,3.18l-62.14.18Z"/><path class="cls-5" d="M582.38,837.57s32.35,7.35,42.17,12.7c12.34,6.72,39,33.37,39,33.37s19.83,23.61,10.16,27.63-19.4-5.3-23.78-4.86S641,941.86,633,943c-12.82,1.77-47.73-14.62-60-31s-16.35-45.58-16.35-45.58Z"/><path class="cls-12" d="M651.91,875.11a1.72,1.72,0,0,1-.69-.15l-21-9.38a1.69,1.69,0,0,1,1.39-3.09l21,9.38a1.69,1.69,0,0,1-.7,3.24Z"/><path class="cls-12" d="M819.44,835.83a1.71,1.71,0,0,1-1.67-1.43l-5.85-36.07c-15.88,11.85-41,3.49-42.1,3.11a1.7,1.7,0,0,1,1.1-3.21c.26.09,26.91,8.95,41-4.35a1.69,1.69,0,0,1,2.83,1l6.33,39a1.7,1.7,0,0,1-1.4,1.95Z"/><polygon class="cls-16" points="1534.43 828.51 1540.55 882.58 1611.88 876.78 1611.88 839.2 1534.43 828.51"/><path class="cls-8" d="M1505.47,424.64s-64.85,143.81-70.41,209.83,83.35,226.87,83.35,226.87h115.65s-63.65-192.06-63.94-253.28,27.44-190.22,27.44-190.22Z"/><polygon class="cls-8" points="1593.09 492.58 1578.88 484.02 1491.32 457.46 1505.47 424.64 1605.33 437.67 1593.09 492.58"/><polygon class="cls-16" points="1658.94 819.05 1666.13 882.58 1737.46 876.78 1728.61 837.98 1658.94 819.05"/><path class="cls-8" d="M1711.35,424.64s-6.55,133,0,185.83,59.17,240.27,55.88,245.07-133.17,5.8-133.17,5.8-61.65-152.45-72-238.87,24.47-197.83,24.47-197.83Z"/><path class="cls-13" d="M1442.08,356.31l192,17.39,4.63,14.19c8.75-1.56,17-1.1,23.35,3.13,15.87,10.6,1.39,44.49,1.39,44.49a49.35,49.35,0,0,1-7.07,6.49L1664,457s55.54-10.29,91.23-55.65,50.57-136.7,11-191.74-94.47-61.41-94.47-61.41-86.84-15.81-150.57,42.12S1442.08,356.31,1442.08,356.31Z"/><path class="cls-16" d="M1677.65,123.81l-.73,33s-6.17,9.36-25.51,10.5c-14.41.85-19.4-2.52-19.4-2.52l2.38-16.67,2.34-16.26,35-6.9Z"/><path class="cls-12" d="M1671.77,125a10.8,10.8,0,0,1-1,3.17c-7.75,16.32-28,19.43-36.35,20l2.34-16.26Z"/><path class="cls-16" d="M1631,56.46s-18.24,41-11.92,64.15,27.39,19.66,40,15.27,18.52-12.06,18.52-12.06a17.77,17.77,0,0,0,19.68-6.82c8-10.89,3.19-23.48-3.51-26.41s-14.72,1.87-14.72,1.87l6.34-11.91S1659.51,19.64,1631,56.46Z"/><path class="cls-12" d="M1632.59,108.87a1.46,1.46,0,0,1-1.39-1C1628.47,99,1634.7,90,1635,89.62a1.45,1.45,0,0,1,2.37,1.66c-.06.08-5.68,8.23-3.37,15.71a1.45,1.45,0,0,1-1,1.81A1.33,1.33,0,0,1,1632.59,108.87Z"/><path class="cls-12" d="M1680.85,111.89a1.44,1.44,0,0,1-1.06-2.44L1691,97.61a1.45,1.45,0,1,1,2.11,2l-11.17,11.83A1.43,1.43,0,0,1,1680.85,111.89Z"/><path class="cls-12" d="M1692.67,108.71c-.22,0-7.94-1.18-7.94-1.18a1.45,1.45,0,0,1-1.22-1.65,1.44,1.44,0,0,1,1.66-1.22l7.72,1.17a1.45,1.45,0,0,1,1.21,1.66A1.43,1.43,0,0,1,1692.67,108.71Z"/><path class="cls-12" d="M1645.59,121.51c-4.25,0-7.69-3.44-7.87-3.62a1.46,1.46,0,0,1-.37-1.36,1.43,1.43,0,0,1,1-1l16.08-5.35a1.47,1.47,0,0,1,1.46.33,1.43,1.43,0,0,1,.38,1.45c-.07.25-1.83,6.09-7.16,8.76A7.66,7.66,0,0,1,1645.59,121.51Zm-3.8-4.12c1.57.94,3.83,1.79,6,.7a11,11,0,0,0,4.33-4.13Z"/><path class="cls-12" d="M1651.22,93.52a1.48,1.48,0,0,1-1.43-1.63l1-7.66a1.41,1.41,0,0,1,1.62-1.25,1.45,1.45,0,0,1,1.25,1.62l-1,7.66A1.44,1.44,0,0,1,1651.22,93.52Z"/><path class="cls-12" d="M1628.47,91.7A1.49,1.49,0,0,1,1627,90l1.12-7.64a1.43,1.43,0,0,1,1.65-1.22,1.44,1.44,0,0,1,1.22,1.64l-1.12,7.64A1.46,1.46,0,0,1,1628.47,91.7Z"/><path class="cls-12" d="M1658.36,78.84a1.46,1.46,0,0,1-1.29-.79c-1.81-3.52-6.7-2.55-6.9-2.5a1.44,1.44,0,0,1-1.73-1.11,1.48,1.48,0,0,1,1.12-1.73c.28-.07,7.25-1.49,10.09,4a1.46,1.46,0,0,1-.63,2A1.4,1.4,0,0,1,1658.36,78.84Z"/><path class="cls-12" d="M1636.15,74.1a1.4,1.4,0,0,1-1.19-.63,3.46,3.46,0,0,0-2.42-1.66c-2-.28-4.2,1.31-4.9,1.93a1.46,1.46,0,0,1-2-.12,1.45,1.45,0,0,1,.13-2.05c.14-.12,3.6-3,7.15-2.64a6.24,6.24,0,0,1,4.46,2.91,1.43,1.43,0,0,1-.38,2A1.41,1.41,0,0,1,1636.15,74.1Z"/><path class="cls-8" d="M1721.59,167.54s-23.76,26.55-35.16,73.55-1.49,85-1.49,85l-46.23,61.85L1608,272.75l3.9-38.19,39.5-1.31s18.16-44.77,24.11-54.93c9.46-16.14,17.69-24.56,17.69-24.56Z"/><path class="cls-16" d="M1432.15,302.61s24.61-40.6,30.58-27.12-9.36,36.22-9.36,36.22Z"/><path class="cls-12" d="M1679.1,92.46s1.26,7.46-7.33,0-8.23-17.71-12.14-30.31S1646.47,41,1638.75,48.71L1631,56.46l17.24-19.11s23.5-17.89,44.39,2.27c23.92,23.08,14.93,36.05,14.93,36.05A92.07,92.07,0,0,1,1679.1,92.46Z"/><rect class="cls-15" x="1441.64" y="287.91" width="162.6" height="162.6" rx="0.92" transform="translate(3045.88 738.41) rotate(180)"/><rect class="cls-2" x="1487.26" y="288.53" width="162.6" height="162.6" rx="0.92" transform="translate(3137.12 739.66) rotate(180)"/><path class="cls-17" d="M1638.71,387.89,1656.38,442c14.63,0,30-16.45,30-16.45s-1.06-36.41-16.94-47C1663.18,374.31,1646.79,377.65,1638.71,387.89Z"/><path class="cls-16" d="M1597.4,463c30.42-2.2,49.54-13.61,59-21l-17.67-54.11c-13.32,2.32-27.75,9.38-38,15.12-17,9.5-10.6,12.69-3.18,14.83s32-3.88,18.77,7.07c-7.53,6.2-47.57,2.09-53.88,10.6s18,12.69,18,12.69-20.17-2.09-25.44,1S1572.72,464.89,1597.4,463Z"/><path class="cls-16" d="M1424.14,323.94s-24.17-12.68-11.89-21.31,60.18,3.5,59.77,19.05S1424.14,323.94,1424.14,323.94Z"/><path class="cls-16" d="M1418.8,345.88s-24.17-12.68-11.89-21.3,60.18,3.5,59.78,19S1418.8,345.88,1418.8,345.88Z"/><path class="cls-16" d="M1426.84,369a34.52,34.52,0,0,1-17.46-5.38c-4.57-3-8-7.22-3.26-11.9,9.41-9.38,53-6,55,7.59C1462.6,369.43,1439.07,369.6,1426.84,369Z"/><path class="cls-18" d="M1686.45,326.25a1.52,1.52,0,0,1-.8-.23,1.46,1.46,0,0,1-.57-1.69c.4-1.16,10-28.5,19.13-32.89a5.67,5.67,0,0,1,4.48-.35,3.84,3.84,0,0,1,2.63,2.89c1.58,7.67-19.62,27.9-23.89,31.88A1.42,1.42,0,0,1,1686.45,326.25Zm20.48-32.57a3.27,3.27,0,0,0-1.46.38c-5.34,2.55-11.69,16-15.39,25.22,8.89-8.87,19.22-20.72,18.4-24.71-.06-.25-.16-.54-.76-.75A2.12,2.12,0,0,0,1706.93,293.68Z"/><path class="cls-12" d="M1452.7,330.68a1.87,1.87,0,0,1-.32,0l-33.87-7.5a1.45,1.45,0,0,1,.63-2.83l33.87,7.5a1.44,1.44,0,0,1,1.1,1.73A1.46,1.46,0,0,1,1452.7,330.68Z"/><path class="cls-12" d="M1450.61,351.54c-.19,0-32-4.23-32-4.23a1.45,1.45,0,0,1,.38-2.87l31.81,4.22a1.45,1.45,0,0,1-.19,2.88Z"/><path class="cls-12" d="M1588.8,452.59c-5.46,0-11.48-.85-16.37-3.66a1.45,1.45,0,1,1,1.45-2.51c10.91,6.29,29.16,1.52,29.35,1.47a1.45,1.45,0,0,1,.75,2.8A65.08,65.08,0,0,1,1588.8,452.59Z"/><path class="cls-12" d="M1619.13,419.28a1.45,1.45,0,0,1-.12-2.89l12.53-1.09a1.45,1.45,0,0,1,.26,2.89l-12.54,1.09Z"/><path class="cls-19" d="M1632,857.68a1.44,1.44,0,0,1-1.35-.93c-.7-1.84-70-184.51-70.94-243.81-.89-55,9.4-120.38,11-130.37L1518,468.36a1.45,1.45,0,0,1-1-1.78,1.48,1.48,0,0,1,1.78-1l54,14.55a1.45,1.45,0,0,1,1,1.65c-.12.71-12.16,71.94-11.21,131.13,1,58.8,70.06,241,70.76,242.83a1.45,1.45,0,0,1-.84,1.87A1.54,1.54,0,0,1,1632,857.68Z"/><path class="cls-11" d="M1536.15,646.93c-10.76,0-21.57-1.41-26.53-6.32-1.6-1.58-2.06-3-1.36-4.33,3.15-5.73,40.64,1.79,56.62,5.29a1.45,1.45,0,0,1-.06,2.85A190.22,190.22,0,0,1,1536.15,646.93Zm-25.31-9.29c.09.05.27.38.82.92,7.48,7.4,31.69,5.67,44.52,4.14C1534.85,638.39,1513.36,635.47,1510.84,637.64Z"/><rect class="cls-3" x="1452.7" y="136.55" width="115.77" height="151.98" rx="0.75" transform="translate(3021.17 425.08) rotate(180)"/><rect class="cls-4" x="1522.94" y="136.55" width="115.77" height="151.98" rx="0.75" transform="translate(3161.65 425.08) rotate(180)"/><path class="cls-12" d="M1684.35,82.61s-7.12,24.59-12.58,21.91,4.54-27.13,4.54-27.13Z"/><path class="cls-20" d="M1617.64,959.94c-1,12.1-2.18,20.9-3.41,22.4-4.53,5.54-182.76,10.08-191.56,9s-5.92.53-8.74-1.12c-2.19-1.28-1.07-14.19-.43-20.43.27-2,.43-3.36.43-3.36s0-22.08,15.84-32.85,43-15.25,43-15.25,46.66-32.27,50.5-34,7.79-18.67,9.49-19.25,80.42,1.7,85.22,5.12C1621.43,872.69,1620.26,927.83,1617.64,959.94Z"/><path class="cls-21" d="M1617.64,959.94c-1,12.1-2.18,20.9-3.41,22.4-4.53,5.54-182.76,10.08-191.56,9s-5.92.53-8.74-1.12c-2.19-1.28-1.07-14.19-.43-20.43,23.63.16,113.43.27,152.73-3.57C1592.05,963.67,1608.36,961.43,1617.64,959.94Z"/><path class="cls-10" d="M1535.93,896.51a1.4,1.4,0,0,1-.66-.16l-16.49-8.45a1.45,1.45,0,0,1,1.32-2.58l16.48,8.45a1.45,1.45,0,0,1-.65,2.74Z"/><path class="cls-10" d="M1522.27,913.41a1.67,1.67,0,0,1-.49-.08l-26.53-9.46a1.45,1.45,0,1,1,1-2.73l26.53,9.46a1.45,1.45,0,0,1-.49,2.81Z"/><path class="cls-17" d="M1740.66,959.94c-1,12.1-2.18,20.9-3.41,22.4-4.53,5.54-182.76,10.08-191.56,9s-5.92.53-8.74-1.12c-2.19-1.28-1.07-14.19-.43-20.43.27-2,.43-3.36.43-3.36s0-22.08,15.84-32.85,43-15.25,43-15.25,46.66-32.27,50.5-34,7.79-18.67,9.49-19.25,80.42,1.7,85.22,5.12C1744.45,872.69,1743.28,927.83,1740.66,959.94Z"/><path class="cls-22" d="M1740.66,959.94c-1,12.1-2.18,20.9-3.41,22.4-4.53,5.54-182.76,10.08-191.56,9s-5.92.53-8.74-1.12c-2.19-1.28-1.07-14.19-.43-20.43,23.63.16,113.43.27,152.73-3.57C1715.07,963.67,1731.38,961.43,1740.66,959.94Z"/><path class="cls-10" d="M1658.94,896.51a1.46,1.46,0,0,1-.66-.16l-16.47-8.45a1.44,1.44,0,0,1-.63-1.95,1.46,1.46,0,0,1,2-.63l16.47,8.45a1.45,1.45,0,0,1-.66,2.74Z"/><path class="cls-10" d="M1645.29,913.41a1.67,1.67,0,0,1-.49-.08l-26.53-9.46a1.45,1.45,0,0,1,1-2.73l26.54,9.46a1.45,1.45,0,0,1-.49,2.81Z"/><path class="cls-18" d="M1643,169q-1.79,0-3.66-.09a1.45,1.45,0,0,1,.08-2.89c23.71,1.16,36.41-10.14,36.54-10.26a1.44,1.44,0,0,1,2,.09,1.46,1.46,0,0,1-.08,2C1677.38,158.36,1665.55,169,1643,169Z"/><path class="cls-23" d="M1700,96.64s-89.15-42.83-93.8-51.62S1631,47.86,1631,47.86s21.18-35.64,60.44-11.87C1727.26,57.67,1700,96.64,1700,96.64Z"/><path class="cls-24" d="M1172.62,1154.69c.4,1.66,1.8.55,2.16.7C1173.53,1152.8,1172.23,1154.89,1172.62,1154.69Z"/><polygon class="cls-24" points="1160.1 1129.16 1160.91 1129.41 1158.01 1126.01 1160.1 1129.16"/><path class="cls-24" d="M1151.8,1104.15c-1.92,3.27,3.46,8.91,4,13.69l-.38.94,2.85,1.28C1156.1,1114.76,1152.31,1108.22,1151.8,1104.15Z"/><path class="cls-24" d="M1153.22,1088.87c-.78,1.17-1.87-2.58.7,3.22,0-.34.06-.45.08-.65C1153.81,1090.9,1153.56,1090.16,1153.22,1088.87Z"/><path class="cls-24" d="M1154,1091.44c1,2.6.31-2,0,0Z"/><path class="cls-24" d="M1149.35,1079.48l2.09,3.15c.38-.93-.5-4.06.33-3.06C1150.07,1076.18,1149.7,1077.12,1149.35,1079.48Z"/><path class="cls-24" d="M1146.27,1076.85l1,1.67C1147.43,1078.11,1147.36,1077.61,1146.27,1076.85Z"/><path class="cls-24" d="M1149.38,1082.05l-2.11-3.53c-.27.64-1.13,1,.89,1.64C1147.25,1080.12,1148.27,1080.62,1149.38,1082.05Z"/><path class="cls-24" d="M1149.69,1084.34c.06,2.14.52,4.78-1.57,1.61C1150.7,1092.46,1152.28,1090.85,1149.69,1084.34Z"/><path class="cls-24" d="M1148.57,1103.81l.08,2.86,1.65,1.95C1149.48,1107.65,1149.37,1103.36,1148.57,1103.81Z"/><path class="cls-24" d="M1143.55,1057.41c-.65,0-1.15,1.68-1.8,2.18l1.52,2.35C1143.22,1060.49,1142.75,1057.87,1143.55,1057.41Z"/><path class="cls-24" d="M1141.75,1059.59l-2.27-3.5C1140.51,1059.55,1141.19,1060,1141.75,1059.59Z"/><polygon class="cls-24" points="1143.06 1077.24 1147.24 1082.84 1142.63 1076.03 1143.06 1077.24"/><polygon class="cls-24" points="1138.74 1042.75 1140.8 1044.48 1137.5 1041.28 1138.74 1042.75"/><path class="cls-24" d="M1135.27,1033.12c1.64,1.24,1.14-2.83,2.39-1.35a23,23,0,0,0-4.31-6.25A14.78,14.78,0,0,1,1135.27,1033.12Z"/><path class="cls-24" d="M1131,1022.53a27.72,27.72,0,0,0,2.38,3A13.26,13.26,0,0,0,1131,1022.53Z"/><path class="cls-24" d="M1137.59,1049.47a4.41,4.41,0,0,0,.64-3.57l-1.11,2C1137.26,1048.42,1137.43,1048.94,1137.59,1049.47Z"/><path class="cls-24" d="M1137.08,1048l0-.07c-.51-1.65-.86-2.79-1-3.28C1136.25,1045.09,1136.54,1046.1,1137.08,1048Z"/><path class="cls-24" d="M1137.71,1049.85c0-.14-.07-.24-.12-.38C1137.48,1049.67,1137.46,1049.77,1137.71,1049.85Z"/><path class="cls-24" d="M1141.18,1066.7c-1.66-2-4.19-6.32-4.06-1.32C1138.77,1066.63,1138.69,1063.77,1141.18,1066.7Z"/><path class="cls-24" d="M1136.31,1052.4l1,4.19c.4-.22.78-1.16,1.6-.2Z"/><polygon class="cls-24" points="1135.13 1050.58 1136.31 1052.4 1135.94 1050.84 1135.13 1050.58"/><path class="cls-24" d="M1131.78,1030a19.3,19.3,0,0,1-2.83-5.57,56.09,56.09,0,0,0,1.85,7.19C1131.42,1031.78,1132.67,1032.48,1131.78,1030Z"/><path class="cls-24" d="M1134.21,1038.81c-.07-.11-.14-.26-.22-.36C1133.93,1038.73,1134,1038.94,1134.21,1038.81Z"/><path class="cls-24" d="M1121.83,1003.05c0,.15-.12.29-.18.44h.31Z"/><path class="cls-24" d="M1130.63,1032.12a5.74,5.74,0,0,0,1.85,3.6,39.06,39.06,0,0,1-1.68-4.09C1130.53,1031.56,1130.37,1031.58,1130.63,1032.12Z"/><path class="cls-24" d="M1128.23,1016.81a27.44,27.44,0,0,0,.12,3.33C1128.56,1019.08,1128.76,1017,1128.23,1016.81Z"/><path class="cls-24" d="M1134.24,1037.71a2,2,0,0,1,.16.24C1134.56,1037.26,1134.41,1037.39,1134.24,1037.71Z"/><path class="cls-24" d="M1134.24,1037.71a11.94,11.94,0,0,0-1.76-2,21.45,21.45,0,0,0,1.51,2.73A2.8,2.8,0,0,1,1134.24,1037.71Z"/><path class="cls-24" d="M1109.26,1000c1.61-.19,4.53,4,4.24,8.46,2.43,3.53,6.53-.67,8.15-5-.69.1-1.3.3-3.53-3.43-.35,1.69,1.06,9.57-1.43,6.63-2.55-5.07-.93-4.54-1-7.4-1.14,2.83-5-5.87-7.35-3.79l2.53,4.35C1110.47,1000.08,1109.22,998.61,1109.26,1000Z"/><path class="cls-24" d="M1124.05,1011.21l.74,1.59a19.38,19.38,0,0,1,.13-6.4c-1.65-2.51-2.4-2.9-3-2.92l2.51,8.22Z"/><path class="cls-24" d="M1127.27,1020.23c-2.06-.75-4.08-4.49-5-1.47,1.73,4.82,2.5,3,4.18,5.62-3-7.7,1.66,1.95.7-4a34.4,34.4,0,0,1,1.84,4.09c-.27-1.47-.48-2.92-.6-4.3,0,.08,0,.14,0,.21l0,0h0c-.09.41-.17.56-.18.14a.54.54,0,0,1-.09-.15,1.78,1.78,0,0,1-.74-.15c-.42-2.38.31-.5.74.15a1.22,1.22,0,0,0,.27,0s0,0,0,0l-3.51-7.55A46.09,46.09,0,0,0,1127.27,1020.23Z"/><path class="cls-24" d="M1132.2,1062.37a.46.46,0,0,1,.3-.38C1132.13,1061.55,1131.93,1061.4,1132.2,1062.37Z"/><path class="cls-24" d="M1132.12,1058.81a4.33,4.33,0,0,1,1.68,2.66c0,1.78-.79.26-1.3.52.81,1,2.48,3.52,2.1-.25l-.4-.48c-.5-3.35.19-8.09.6-7.61A12.32,12.32,0,0,0,1132.12,1058.81Z"/><path class="cls-24" d="M1129.2,1039.43l-3-6.27-.3,3.8.79-.45C1127.62,1040.34,1128.4,1039.19,1129.2,1039.43Z"/><polygon class="cls-24" points="1122.4 1002.03 1124.41 1002.32 1120.72 999.36 1122.4 1002.03"/><polygon class="cls-24" points="1119.36 993.6 1120.96 993.42 1119.31 991.48 1119.36 993.6"/><path class="cls-24" d="M940.91,520.32l-1.06-1.78A11.09,11.09,0,0,0,940.91,520.32Z"/><path class="cls-24" d="M945.45,534.26l.85.09C945.68,533.85,945.29,533.68,945.45,534.26Z"/><path class="cls-24" d="M1049.64,785c.47-3.26,1.6-7.11,0-6.21l-1.36,1.41A11.45,11.45,0,0,1,1049.64,785Z"/><path class="cls-24" d="M992.17,645.33c-.07.32-.15.65-.23,1,.79.5,1.53,1,2.21,1.37C993.54,647,992.87,646.17,992.17,645.33Z"/><path class="cls-24" d="M984.7,645.62l-.17-4A19.4,19.4,0,0,0,984.7,645.62Z"/><path class="cls-24" d="M913.85,444.93l-2.43-1.68C912.6,446.75,912.93,444.93,913.85,444.93Z"/><path class="cls-24" d="M1089.75,906.78a30.51,30.51,0,0,0-1-6.36C1088.76,903.65,1088.12,906.47,1089.75,906.78Z"/><path class="cls-24" d="M960.21,520c-.69-1.08-1.2-1.47-1.55-1.31C959.34,519.77,959.89,520.35,960.21,520Z"/><path class="cls-24" d="M1086.4,893.45c0,.48,0,.93,0,1.41a28.1,28.1,0,0,1,2.29,5.56C1088.72,898,1088.33,895.43,1086.4,893.45Z"/><path class="cls-24" d="M823.39,169c0-.22,0-.48,0-.69C823.13,168.29,823.21,168.57,823.39,169Z"/><path class="cls-24" d="M813.25,83.16c.36.76.79,2,1.22,3.25A12,12,0,0,0,813.25,83.16Z"/><path class="cls-24" d="M1108.68,959.18c.71,1.76.28.22,0,0Z"/><path class="cls-24" d="M1105.09,970.11a1.14,1.14,0,0,0-1-.45A1.42,1.42,0,0,1,1105.09,970.11Z"/><path class="cls-24" d="M1070.17,878.91s0-.09,0-.15C1070,879.4,1070,879.29,1070.17,878.91Z"/><path class="cls-24" d="M1108.84,962.14a18.15,18.15,0,0,0-.28-2.47A16.12,16.12,0,0,0,1108.84,962.14Z"/><path class="cls-24" d="M1109.49,961.51c.14.65.26,1.15.37,1.63C1110.21,963.28,1110.31,963,1109.49,961.51Z"/><path class="cls-24" d="M1107.76,956.69a20.07,20.07,0,0,1,.8,3c0-.39,0-.57.12-.49C1108.48,958.66,1108.2,957.92,1107.76,956.69Z"/><path class="cls-24" d="M877,315.12a3.37,3.37,0,0,1,0-.44C875.73,313.09,876.1,313.85,877,315.12Z"/><path class="cls-24" d="M1016.91,743.77c0,.08.1.11.14.18,0-.09,0-.21,0-.29Z"/><path class="cls-24" d="M1013.52,737.7c3,2.08,3.24,3.73,3.5,6l4-3.72Z"/><path class="cls-24" d="M929.34,487.17l0,5c-4.26-4.68-4.74-8.93-5.4-4,5.37-1.07,6.42,17.5,11.78,16.41l-.09,3.36c-.24-.88-.59-.91-.82-1.78-.52,6.65,5.17,3.09,6.94,10.84.48,2.75.34,4.83-.87,3.25l3.22,5.4c.47,1.73-.57,1.62-1-.11l3.37,8.76-.17,0a42.82,42.82,0,0,1,4.44,4.69c0,2.51-.93-.95-1.38-.16l2.89,4.51c-.66,2.45-3.32-1.2-4.26-4.66-3.61,6.31,2.66,3.65,3,14.58l-2.2-4.44c-1.93,4,.34,7.25.27,13.12.54-1.57,1.09-12.06,4.15-7.14a10.8,10.8,0,0,0,2.59,6.22c-1.83.63-.44,3.3.84,6.79l-2.51.57c2,3.57,3.11,2.86,4.95,4.73,1.17,4.33-.41,5.84-1.66,7.36,1.88,6.93,1.45-5.7,4.59,2.2.95,6,3.27,9.6,7,15.88.48,4.23-1.71-.2-1.93,1.45l3.1,2.86c.24.88-.45.8-.79.76,1.73,2.7,2.5-.57,4.71,3.86,3.09.36-.73,10.84,4.23,15.58-.22,1.64-1.72-.19-2.52.56,4.63,7.22,3.71,6.28,8.55,11.86l.24,6.05c.47-4.66,4.36-.2,7.64,3.75.4-1.73.76-3.22.86-4.17l3.71,6.81c-.1,1-1.18.56-2.59-.29.36.43.72.83,1,1.13,0,2.89-1.88,2-3.85.61.18-1,.4-2.09.62-3.11-2.07-1.29-4.26-2.42-5.55-1.58a7.62,7.62,0,0,1,1.44,2.16c-.55-.34-1-.51-1.18-.22s.61.91,1.63,1.89l-2.16,2.55,1.21,0,1.46,10c5,5.87,11,10.43,15.66,20.81-2.87-2-3.43.51-5.83,1.15,1.51-3.77-3.83-8-5.18-13.73.7,3-.63,2.73-1.27,2.12l5.58,9.2c-2,.41-.74,2.59-.67,5.45,3.15-3.23,5,6.57,7.52,10.23-1.19.68-2.82.14-4.16-4.9-1,6.4,6.81,5.55,6.16,11.71-.43-1.2-.45-1.91-1.26-2.17,2.08,2.43,3.47,9.62,1.82,8.37l-.43-1.19c2.22,8.15,8.1,24.37,11.72,24.49a18.17,18.17,0,0,1-5.05,0L1029,743.37c-3.2-.34-8.19,6.69-12,.58a17.59,17.59,0,0,0,2.89,8.24c0-1.43,2.92-4.58,3.77-2.89-1.46,5.91-.52,3.94-1.15,10.83,0-2.15,5-1.43,5.9,1.69-.81-.26-4.2,1.69-5,.71l6.82,6.24c-1.41-1.65-3.73.87-4.36,3,.57-1.08,2.13,6.65,3.23,8.55l-.09-3.58c2.24,8.87,8.85,6.55,11.48,15.21-1.23-.74-6.28-.76-5.36,3.79,2.85,1.27,13.47,5.35,17.68,12.39l-.76,1.87,3.36,5.35a121.7,121.7,0,0,1-19.36-15.07c.09,3.57-1.17,1.39.56,6.21-.6,2.1-2.66-2.06-3.2-3.46l3,11.54c2.38-1.35,5.43,7.78,7.41,6.65l-6.73-11.39c2.38-1.34,9.61,4.68,11.82,12.83-.33,2.37-5,0-5.84.44,1.22.75,4.21,7,3.83,8l-2.5-2.94c.53,4.77,5.81,6.14,5.16,12.3.45,1.91-1.45,6.62.17,6.43,1.9-4,10.71-7.57,13.57-6.29,0,.71.45,10.63-.29,13.21-1.27,3.81-7-2.75-8.06.49.74-.12,2.16,1.28,2.67,1.88,0,2.14-2.43-.08-.71,4,2.82-.16,2.64,8.65,2.85,1.26,2.12,3.88.93,4.56,2.66,9.37,1.15-2.1,7.13,2.45,9.25,6.34-.74,0-1.29,1.18-1.53,1.76,2.59,8.53,2.92,13.46,5.53,21.35-.39.94.12,5-1.53,3.74.84,1,2.06,1.73,2.93,4.15-.67,5.45-2.15-5.31-3.64-.83,1.6-.19,4.16,5.6,6.26,8.75,2-1.84-2.22-8.15-4.32-11.3,3.2-1.09,8.56,3.83,12.79,11.57,3,6.29-1.12,3.53-.29,4.52,3.54,12.48,9.09,8.61,10.18,19.59-.69,4.73-4,1.54-5.17,2.93-2.55-5.08-1.44-8.62-2.72-12.21l.52,4.77c-1.25-1.47-3-4.86-3-7-.71,4,6.57,20.89,8,30.94,1.24,1.46,2.92,4.13,3.28,2.48l-1.28-2.9c.72-3.31,4.16,4.89,3.66.83,2.5,3.64,5.82,7.55,6.78,13.53l-2,1.84c.64-.35.15-4.17-1.09-5.52,1.82,2-.25,9.74,3.66,11.31l.28-4.51c2.52,3.66,6.66,7.83,7.6,13.1,1.53-3-.65-1.07.85-5.54-2.32,4.21-4.15-12.9-6-6.75,1.9-4.71-.79-6.78.28-12.46-.72.4-.9,2.18-1.93-2.16a4.49,4.49,0,0,1-1-.7c0-.13,0-.18,0-.3,0,.09,0,.17,0,.26-.17-.14-.2-.15,0,.1a5.09,5.09,0,0,1-.45,2.53c-2.46-1.5-4.64-8.23-6.31-10.19-.47-2.63,1.23.75,1.6-.89l-2.5-2.93c1.6-.9.62-7.59,3.58-2l-1.69-5.33c-.09-3.45-1.14-7.87-2.74-10.28-.46-2.63-4-5.69-1.93-4l-3.83-8,.4-.22c-2.52-8.28-8.46-16-8.51-26.37a36.89,36.89,0,0,1-3.89-10.09l1.18-1.4c-1.7-3.37-2.08-11.15-4.13-12.16,2.7-5.15-4.87-17.52-6.25-24l-2,.4a84.41,84.41,0,0,0-5.79-13.34l-1.6.89c-2.93-4.13-2.73-12.22-5.33-19.44.82.28,1.26,2.18,1.31,3.62.94-10-8.91-17.41-8.74-26.22a7.75,7.75,0,0,1-1.56-4.77,1.56,1.56,0,0,0,.25.46c-.05-.21-.15-.51-.25-.82,0-1,0-2,0-3a11.46,11.46,0,0,0-.15,2.6,43.14,43.14,0,0,0-2.69-5.84l1.5-1.56c-.08-.18-.13-.33-.22-.51-.06-2.43-1.46-1.49-2.44.15a14.65,14.65,0,0,0-2.1-2.61c2.35-2.78-3-5.58-.63-9.07-2-1-4.93-10.94-8.55-11.06.39-.22.37-1,.8.26-.47-2.64-.94-5.27-2.6-7.22l2-1.84-5-4.44c.31-3.8.67-5.45,3.56-2.74-5.41-7.07-3.2-6.13-8.18-12l1.61-.17c-.87-2.4-4.17-5.61-3.42-7.49,1.05-6.38-8.56-27-10.55-41.81-3.52,4.17-.17-7.14-3.79-6.55.78-1.16.72-3.3,2.38-1.35-3.4-6.77-1.9-11.24-6.43-15.18.78-1.17,2,1,2.42.08-.41-.5-1.66-2-1.28-2.91s1.22.75,2.06,1.72c-2.6-7.2-6.07-6.86-9.27-6.38.2-4.16-.61-5.93-3.48-7.93.56-1.61.88-4.09,2.74.3-.7-2.59-3.72-16-6.23-15.45.35-1-1-3.61-1.5-4.18-1.76-5.75-1.71-6.32-3.8-11.84l.12,1.68c-3.66-1.23-2.2-4.43-4.06-8.83l.34,0c-1.33-11-2.5-4.13-3.49-15.13l-1.63,1.16c-4.24.35-.71-9.81-4.18-15.24l-.33,2.49c-2.41-2.79,2.31-10.82,1.72-14.23.1-.82.92.94,1.5,1.84-.53-9.27-2.75-.31-5.42-6.46.9-1.6,3.77.42,2.59-3.93.33-2.47-8.3-11-7.77-17.62-.56,1.61-1.13,3.22-2.85.52-1.86-4.39-.32-13.45-4.81-16.48.08-.66.27-1,.51-1.07-2-3.18-5.08-10.77-7.46-12.28,5.22-5.28-10.21-20.42-4.38-22.28L943,473.6l.69.08c-1.88-6.91-4.07-8.85-6.26-10.77-.12-1.69.8-.73,1.15-.7-2.14-10.3-2.71-11.2-8.37-18.55l1.59-1.49c-1.84-1.89-1.82-15.31-7.25-24.29a1.64,1.64,0,0,1,1.2.78c-5.86-10.2-3.51-27.91-11.7-29.64l-4.09-6.65c2.58,9.51-3.43-.4-3.29,3.82-1.63-3.54-1.1-10.18.76-5.78l-.11.82c4.12.46-2.6-12-.09-12.58-6.3-18.31-10.29-36.88-15.87-54.13l-2.11,2.9-1.84-6.05c.12-1.79,1.46-2.84,2.77,1.48.83-2.77-3.71-6.74-4.35-6.66-1.67-8.76,4.33,2.19,3.54-.4L888,302.37l-.07.89c-2.07-2.45-3.36-2.3-4.94-7.49-.53-3.44,1.16-2.24.84-3.56.2-.06.15-.52-.58-2l-2.28-7.64-1.18,3.75c-2.2-3-2.26-7.15-3.58-2.83,2.12-6.4-8-28.66-7.89-32.2-3.16-4.17-4.67-8.81-6.39-14.61,0,1.58-2.16,3.25-3.51-1.8,5.69.12-.82-9.8,1.51-15-1.24,4.38-5.29-13.87-6.87-7.12-1-4.26,1.82-.88,2-4.41-5.25-9.18-6-22.1-10.66-34-.73,0-1.07,2.41-2.94.13l1.2-7.52c-1.12-2.3-4.59-.93-3.73-6.09-.36.81-.89,2-1.64.48-4.69-24.89-18.88-47.76-20.83-74-.2,3.71-1.06,1.57-1.94-.92.23,1.73-1.66.52-2.46,1.14l-.86-11c-3.12-1-3.79-10.8-6.54-11.06l1.5,3.07c-4.25-3.32-4.31,8.06-8.15,8.65,4.81,3.7-.57,14.17,6.65,20.47-.17,2-1.67-1.09-2.2.12,2.22,1.47,3.34,3.75,4.12,8.43l-.55-.37c4.54,12.35,4.79,18.21,8.44,32.57l1.45-1.63a15.61,15.61,0,0,1,.43,5.47c3.88,2.55-2.67-8.51,1.39-6.36-2.33,5.21,7,21.26,3.77,25.35,1.52,4.64,1.63-2.05,3.15,2.59l-.72,1.6,1.84.69c.78,3.12-.12,5.12-1,5.55a17.34,17.34,0,0,0-1.31-2.77c0,4.38,4.15,11,4.17,12.46l-.79-4.68C832,189,835.71,205,842.07,216.43l.54-1.21c4.68,8.81,1.56,7.78,5.7,17.79l-.33-.31a20,20,0,0,1,3.71,7.21c-1.86-2.26-.31,5.51-2.54,2.48,5.06,9.56,3,4.56,8.37,10.2l-.89,2c2,1.85,2.76,1.82,4.83,6.81-2.6-3.79-1.05,4-4.22-.18.51,11.76,8.43,14.9,5.57,21.33,5.54,3.63-.94-10,.82-7.53.5-2.73,4.26,3.1,5,6.6,1,3.46-3,7.5-.09,16.1-.27-.87-.58-.83-.85-1.69.08,3.56,3.45,5.88,3.16,10.38,3.09,1.44,1.58,5.19,4.79,4.83l-3.33-7.69c2.28,4.23,7.2,7.27,8,15.23-.8-.38-2.33-2.31-3.28-3.67-.16,2.45,2,4,1.81,6.51-3.22.36-3.86-9.41-7.75-13.45-.5,2.74,5.21,8.37,1.15,7,5.29,2.09,2.31,8.68,7.42,13.47l-1.93.21a15.17,15.17,0,0,1,2.6,4.18l-3.36-2.3c3.57,4.06,1.3,9.7,3.89,13.87-3.22-9.48,1.46-2.85,1.44-7.31,6.31,10.92-2.47,8.31,2.77,21.15-.85-1.7-1.14-7,.62-4.53.46,2.62.87,6.15.43,8,3.27,8.57,1.41-1.95,3.75,1.38-1.21,3.69,2.32,4,4.29,7.55l-1.82.64c2.12,10.29,4.69,1.35,6.24,10.74l-3.79-2.92,2.2,4.43-2.4-.26c3.23,4.54,3.35,6.25,4.42,11.4.91-1.58,3.54-.46,5.06,3.91-.09,3.35-2.3-1.1,0,5-1.62-1-3.57-2.08-2.78-5.35-.69-.08-1.61-1-2.3-1.09-.17,3.64,2.42,8.19,3.18,10.44a8.78,8.78,0,0,1-.38-2.58l5.54,8.17c-.21,1.65-1.14.71-2.05-.22.8,1.76,2.07,2.74,3.12,5.37-1.72-.2-3.2.48-5.17-3.09l4.51,8c-.45.79-.3,5-1.22,4.07.71,5.05,6.78,10.72,7.73,17.42a5,5,0,0,1,1.55,2.07c1.64,6,1.57,11.91,6,18.26l-1.34,4.88c2.45,5.31,1.56-6.52,5.63,2.32,3,6.2-1.47,3.18-1.45,5.7,2.42,2.78,7,7.49,6.84,14.17C930.27,490.63,930.15,489,929.34,487.17Zm23.82,67.54c-.82-1.19-2.88-3.42-2.12-4.74C953.63,550.77,953,552.26,953.16,554.71ZM992,656.5c-.94-.77-1.14-2.39-1-4.33A10.62,10.62,0,0,1,992,656.5Zm108.62,283.42a.49.49,0,0,0-.14-.11C1100.21,936.63,1100.27,937.77,1100.61,939.92Zm1.24,6.36c.46.53.7.4.86.06-.6-.27-1.09-1.63-1.48-3.23C1100.9,943.7,1100.83,944.6,1101.85,946.28ZM882.9,291.76l-.09,1.35C881.4,290.6,882.12,291.19,882.9,291.76Z"/><path class="cls-24" d="M985.58,645.63a1.76,1.76,0,0,1,.81-.9C985.91,644.32,985.55,644.43,985.58,645.63Z"/><path class="cls-24" d="M914.3,445.24c0-.07,0-.14,0-.21a.81.81,0,0,0-.4-.1Z"/><path class="cls-24" d="M1054.85,857a6.31,6.31,0,0,1,.13-2.74C1054.51,854.35,1054.33,855.05,1054.85,857Z"/><path class="cls-24" d="M1115.73,977.55l-1.78-3.74a8.24,8.24,0,0,1,.57,3.71C1114.92,977.29,1115.29,976.34,1115.73,977.55Z"/><path class="cls-24" d="M1115.69,1015.23c.42.49.43,1.2.85,1.69l.8-.44C1116.47,1014.07,1115.22,1012.59,1115.69,1015.23Z"/><path class="cls-24" d="M1110.85,983.2c-1.44.82-.1,3.1,1.1,5.74a3.11,3.11,0,0,1-.16-.49C1114.21,988.54,1112.52,985.86,1110.85,983.2Z"/><path class="cls-24" d="M1112.21,989.55a15.7,15.7,0,0,1,.88,2.52C1114.06,992.1,1112.93,991,1112.21,989.55Z"/><path class="cls-24" d="M1105.44,953.67c0,1.43,2.24.16,1.86,1.11C1109.74,955.57,1102.05,946.92,1105.44,953.67Z"/><polygon class="cls-24" points="1106.51 987.1 1108.09 985.49 1106.04 984.47 1106.51 987.1"/><path class="cls-24" d="M1100.71,965l.93,4.54c.3-.17.67.32,1,1C1101.84,967.82,1101.24,964.75,1100.71,965Z"/><path class="cls-24" d="M1102.68,970.54a10.9,10.9,0,0,0,1.48,3.41A25,25,0,0,0,1102.68,970.54Z"/><polygon class="cls-24" points="1103.95 981.32 1103.91 979.89 1103.03 976.76 1103.95 981.32"/><path class="cls-24" d="M1085.41,917.92l-2.13-4.59c-.82-.27-.78,1.17.07,2.86C1084.19,917.18,1085,918.86,1085.41,917.92Z"/><path class="cls-24" d="M1085,934.09a4.55,4.55,0,0,1,.74-2.59l-2.41.64Z"/><path class="cls-24" d="M1079.83,920.36c-.81-.26-4.19-6.3-2-.3C1078.62,920.32,1080.75,924.92,1079.83,920.36Z"/><polygon class="cls-24" points="1058.85 847.48 1059.29 848.68 1063.09 847.22 1058.85 847.48"/><path class="cls-24" d="M1028.49,787.2c1,6,2.83.55,3.38,6,1.35,1-.45-4.49.79-3.39C1030.56,786.76,1030.51,784.79,1028.49,787.2Z"/><path class="cls-24" d="M1032.66,789.85a15.77,15.77,0,0,0,1.17,1.55A7.17,7.17,0,0,0,1032.66,789.85Z"/><polygon class="cls-24" points="810.88 69.15 810.48 65.25 809.96 68.03 810.88 69.15"/><path class="cls-24" d="M805.69,63.13l2.18-1.68-3-1.44C805.29,60.79,806,62.32,805.69,63.13Z"/><path class="cls-24" d="M951.56,566.46l.69.08c.45-.78.22-1.65-.25-3.38Z"/><polygon class="cls-24" points="936.98 516.54 937.21 517.4 938.91 515.08 936.98 516.54"/><path class="cls-24" d="M920.34,476.11c.47,1.72,1.63,3.54,2.1,5.26C920.81,477.83,923,474.72,920.34,476.11Z"/><text class="cls-25" transform="translate(92.84 272.75)">PACKERS</text><text class="cls-25" transform="translate(1236.95 1185.64)">MOVERS</text></svg>