<svg xmlns="http://www.w3.org/2000/svg" width="37" height="34" viewBox="0 0 37 34" fill="none"><path d="M11 4L12.5 1V0.5H23.5L24 1.5L25 4L27.5 5.5V7.5L26.5 10.5L25 14.5L22 18L18.5 20L16.5 19L12.5 16L10.5 12.5L8.5 8.5V6L11 4Z" fill="#CAD5F3"></path><path d="M6.5 28.5V20H8.5L10.5 21L14 22.5H17L21 23L23.5 24.5L24 26.5H25.5L29 24.5L33 21.5H34.5L35.5 23L35 24.5L30 28.5L27 31.5L22 32.5L13.5 33L6.5 30V28.5Z" fill="#FFAAC3"></path><rect x="1" y="16.9883" width="5" height="15" fill="#EF4910"></rect><path d="M36.1239 23.4642C35.954 24.1718 35.4918 24.6667 34.9636 25.1344C32.9337 26.9365 30.9003 28.7386 28.9091 30.5784C27.8493 31.5639 26.6327 32.086 25.2084 32.2777C22.3211 32.6609 19.4426 33.1084 16.558 33.5136C14.0545 33.8652 14.3098 33.9531 12.0686 33.0741C11.8177 32.9756 11.5633 32.8851 11.3115 32.7893L7.42688 31.3212C7.2966 31.272 7.1628 31.2333 7.03604 31.1859C7.01227 31.221 6.99115 31.2386 6.99027 31.2571C6.93657 32.3998 6.53692 32.7831 5.40049 32.7831C4.07186 32.7831 2.74323 32.7831 1.4146 32.7831C0.488553 32.7831 0 32.2935 0 31.3713C0 26.945 0 22.5183 0 18.0914C0 17.1543 0.495595 16.6567 1.43397 16.655C2.81013 16.6515 4.186 16.6515 5.56158 16.655C6.48235 16.655 6.98234 17.1569 6.98498 18.0668C6.98498 18.4641 6.98498 18.8579 6.98498 19.2552C7.51315 19.3431 8.03603 19.3766 8.52282 19.519C9.2156 19.7273 9.88637 20.0104 10.5607 20.2776C10.7767 20.3703 10.9831 20.484 11.1769 20.6169C12.7455 21.6401 14.4708 22.0665 16.337 22.1412C18.0976 22.2115 19.8581 22.3865 21.602 22.6115C23.0817 22.8023 24.1354 23.9987 24.2648 25.4746C24.2886 25.7383 24.3643 25.8526 24.6389 25.8473C24.9558 25.8429 25.2736 25.8957 25.5896 25.8807C25.7609 25.8644 25.9251 25.8039 26.0658 25.7049C28.2665 24.2422 30.4566 22.7636 32.6608 21.3096C33.9813 20.4385 35.5869 21.0327 36.0525 22.5359C36.0731 22.5877 36.0976 22.638 36.1256 22.6862L36.1239 23.4642ZM6.98674 20.3585V21.1312C6.98674 21.2727 6.98674 21.4133 6.98674 21.554C6.97178 21.9056 6.76139 22.1307 6.45242 22.1263C6.14344 22.1219 5.93041 21.8968 5.93041 21.5373C5.92513 20.4103 5.91633 19.2825 5.93041 18.1555C5.9357 17.8189 5.8327 17.6975 5.49028 17.7011C4.16106 17.7142 2.83273 17.7011 1.50439 17.7072C1.0757 17.7072 1.05457 17.7318 1.05457 18.174C1.05457 22.5295 1.05457 26.8852 1.05457 31.2412C1.05457 31.7177 1.05457 31.7221 1.51671 31.7221C2.83361 31.7221 4.1505 31.7221 5.46739 31.7221C5.91633 31.7221 5.92249 31.7151 5.92249 31.2694C5.92249 29.1204 5.92249 26.9716 5.92249 24.8232C5.92249 24.5296 5.90665 24.2342 5.93217 23.9442C5.93356 23.8785 5.94829 23.8139 5.97547 23.7541C6.00265 23.6943 6.04171 23.6407 6.09029 23.5965C6.13886 23.5522 6.19593 23.5183 6.25803 23.4968C6.32013 23.4753 6.38597 23.4666 6.45154 23.4712C6.75171 23.4712 6.92865 23.647 6.9797 23.9371C6.99087 24.0422 6.99323 24.1481 6.98674 24.2536C6.98674 26.0732 6.99291 27.8938 6.98058 29.7134C6.98058 29.9552 7.05453 30.0589 7.27724 30.1415C9.3899 30.9327 11.4858 31.7493 13.6047 32.515C14.046 32.6695 14.5174 32.7192 14.9814 32.66C18.3793 32.1985 21.771 31.6843 25.1679 31.2166C26.3123 31.0593 27.3035 30.6514 28.1477 29.8444C29.0218 29.0093 29.9417 28.2182 30.8422 27.4112C32.091 26.2877 33.341 25.1652 34.5922 24.0435C34.9504 23.7226 35.1476 23.3402 35.0376 22.8559C34.8483 22.026 33.954 21.7193 33.1961 22.2247C30.9578 23.7156 28.7225 25.21 26.4901 26.7079C26.2245 26.9013 25.8961 26.9887 25.5694 26.9532C24.962 26.8943 24.3475 26.8319 23.7401 26.86C22.1556 26.9338 20.5711 27.0622 18.9867 27.158C17.0976 27.2714 15.2085 27.3822 13.3186 27.4789C12.6557 27.5123 12.1099 27.2257 11.6654 26.7475C11.4295 26.4934 11.433 26.1664 11.6548 25.9634C11.8767 25.7603 12.183 25.7744 12.411 26.0126C12.7305 26.3449 13.1038 26.4521 13.5554 26.4257C16.0069 26.2684 18.4594 26.1242 20.9109 25.9739C21.6715 25.9273 22.4312 25.8746 23.1864 25.8253C23.3088 24.7432 22.4039 23.7112 21.2604 23.6101C19.2939 23.4343 17.3291 23.2242 15.3626 23.1143C13.9997 23.0522 12.6715 22.6649 11.4894 21.9847C10.992 21.6973 10.4858 21.423 9.97616 21.1567C9.05059 20.6743 8.02987 20.4018 6.98674 20.3585Z" fill="#383D52"></path><path d="M18.0249 0H23.2079C24.0468 0 24.3805 0.289211 24.5046 1.10498C24.759 2.79717 25.649 4.02434 27.2035 4.76363C27.935 5.11526 28.1868 5.4827 28.0838 6.29671C27.3602 11.9526 24.9835 16.631 20.0302 19.7657C19.5847 20.047 19.1041 20.272 18.6446 20.5322C18.3075 20.723 17.9906 20.708 17.642 20.5322C13.3726 18.4823 10.6103 15.1199 9.03816 10.714C8.52746 9.28885 8.18679 7.80855 8.0232 6.30375C7.95454 5.66643 8.19221 5.21195 8.77936 4.93329C10.4519 4.14214 11.3762 2.83497 11.5778 1.00125C11.642 0.413159 12.0619 0.0685668 12.7001 0.0668086C14.4756 0.0624133 16.2503 0.0668086 18.0249 0.0668086V0ZM12.6482 1.10146C12.6244 1.22102 12.6112 1.27728 12.6024 1.33617C12.3005 3.42218 11.2072 4.93241 9.30136 5.84576C9.11122 5.93366 9.03728 6.05409 9.08217 6.26155C9.28288 7.24874 9.4114 8.25614 9.68604 9.22135C10.9061 13.5068 13.2872 16.9281 17.245 19.1416C18.1446 19.6444 18.1481 19.6488 19.0337 19.1275C23.9755 16.2143 26.3136 11.6968 27.0371 6.18156C27.0715 5.91784 26.957 5.81059 26.7379 5.70686C25.0222 4.89637 23.9571 3.55844 23.5363 1.71065C23.4879 1.49792 23.4562 1.28167 23.4227 1.10146H12.6482Z" fill="#383D52"></path><path d="M3.42172 27.0513C3.91439 27.0569 4.38494 27.2564 4.7311 27.6066C5.07725 27.9567 5.27103 28.4291 5.2703 28.9211C5.26289 29.4192 5.05907 29.8942 4.70309 30.2431C4.34711 30.592 3.86769 30.7866 3.36891 30.7847C2.87593 30.7764 2.40611 30.5743 2.06137 30.2223C1.71662 29.8703 1.52475 29.3968 1.52737 28.9044C1.52635 28.6575 1.57495 28.4129 1.67027 28.1851C1.7656 27.9573 1.90573 27.7508 2.08236 27.5781C2.25899 27.4053 2.46854 27.2696 2.69859 27.1792C2.92865 27.0887 3.17455 27.0452 3.42172 27.0513ZM2.59074 28.9123C2.58931 29.1247 2.67159 29.3291 2.81983 29.4814C2.96807 29.6338 3.17035 29.7217 3.38299 29.7263C3.602 29.7247 3.81146 29.6366 3.96567 29.4813C4.11987 29.326 4.20629 29.1161 4.20605 28.8974C4.20188 28.684 4.11321 28.4809 3.95945 28.3326C3.80569 28.1843 3.59936 28.1029 3.38563 28.1062C3.2801 28.1059 3.17555 28.1265 3.07814 28.1671C2.98072 28.2076 2.8924 28.2672 2.81835 28.3423C2.74431 28.4174 2.68603 28.5065 2.64694 28.6044C2.60786 28.7022 2.58875 28.807 2.59074 28.9123Z" fill="white"></path><path d="M18.0335 1.98828H21.8434C22.4428 1.98828 22.6779 2.15179 22.8654 2.70296C23.3171 4.09011 24.24 5.27603 25.4745 6.0557C25.905 6.32997 26.1004 6.66137 25.978 7.17298C25.8618 7.66262 25.7817 8.16193 25.6664 8.65244C25.5828 9.00407 25.3257 9.18691 25.037 9.1289C24.7201 9.06472 24.5608 8.79925 24.6338 8.42565C24.7131 8.02304 24.8249 7.62658 24.8865 7.22133C24.8904 7.15281 24.8788 7.08429 24.8526 7.02084C24.8264 6.95739 24.7862 6.90063 24.7351 6.85476C23.4574 5.97507 22.48 4.72595 21.934 3.27523C21.9012 3.21652 21.8551 3.16635 21.7992 3.12878C21.7434 3.09122 21.6795 3.0673 21.6127 3.05898C19.2254 3.05898 16.839 3.08535 14.4517 3.09502C14.2598 3.09502 14.1876 3.17501 14.1339 3.33676C13.6167 4.78555 12.6635 6.0392 11.4051 6.92597C11.3513 6.9768 11.3097 7.03907 11.2833 7.10816C11.257 7.17725 11.2465 7.25139 11.2528 7.32506C11.3144 7.72943 11.4288 8.12589 11.5169 8.52762C11.5882 8.87309 11.4288 9.14296 11.1339 9.20977C10.8699 9.27218 10.5855 9.10164 10.5054 8.78079C10.3611 8.20061 10.2273 7.61691 10.1216 7.0297C10.0626 6.70181 10.2211 6.43194 10.501 6.25261C11.8282 5.41859 12.8091 4.13404 13.2633 2.63527C13.3989 2.2098 13.6683 2.04366 14.1542 2.04278C15.4452 2.04278 16.7384 2.04278 18.0335 2.04278V1.98828Z" fill="#383D52"></path><path d="M18.133 18.5067C17.9682 18.4532 17.8071 18.3892 17.6506 18.3151C14.7201 16.7003 12.6735 14.2917 11.3548 11.2413C11.1999 10.8818 11.2941 10.6005 11.5952 10.4686C11.8962 10.3368 12.1709 10.4739 12.3381 10.858C13.1383 12.6882 14.2175 14.3295 15.7298 15.6472C16.3909 16.2229 17.1444 16.6906 17.8495 17.2163C18.0537 17.3701 18.2131 17.3341 18.4182 17.2093C20.8354 15.7351 22.5555 13.6622 23.6998 11.0971C23.7526 10.9793 23.7984 10.858 23.8539 10.7455C24.0132 10.4141 24.2773 10.2893 24.5581 10.4062C24.8583 10.5301 24.9656 10.822 24.8222 11.1692C24.2719 12.5059 23.5367 13.7591 22.6382 14.892C21.5435 16.2646 20.1956 17.415 18.6673 18.2808C18.4937 18.3664 18.3153 18.4418 18.133 18.5067Z" fill="#383D52"></path><path d="M17.7256 11.3556L20.7317 6.82664C20.7836 6.7484 20.8312 6.66665 20.8884 6.59281C21.0935 6.32909 21.3805 6.2658 21.6287 6.43018C21.8769 6.59457 21.9456 6.89257 21.766 7.17299C21.3743 7.78833 20.9659 8.3861 20.5636 8.99265C19.8306 10.0967 19.097 11.2006 18.3629 12.3041C18.0328 12.799 17.7423 12.8315 17.3066 12.4219C16.6493 11.8018 15.9932 11.1803 15.3383 10.5574C15.0266 10.2594 14.9862 9.93676 15.2203 9.70117C15.4545 9.46558 15.7485 9.49195 16.0557 9.7838C16.6076 10.2954 17.1516 10.8132 17.7256 11.3556Z" fill="#383D52"></path></svg>