<svg xmlns="http://www.w3.org/2000/svg" viewBox="0 0 77.54 68.33"><defs><style>.cls-1{fill:#fff;}.cls-2{fill:#2e3192;}</style></defs><g id="Layer_2" data-name="Layer 2"><g id="Layer_1-2" data-name="Layer 1"><rect class="cls-1" width="77.54" height="68.33"/><path class="cls-2" d="M33.75,42.2c-1.38.33-2.76.66-4.14.95-.36.07-.43.19-.42.53,0,2.21,0,4.41,0,6.62,0,2.39,0,4.78,0,7.17,0,.7,0,.72.73.72s1.2,0,1.81-.09l8.9-.59,2.08-.14v-17l-5.52,1.31v.44c0,1.3,0,2.6,0,3.89,0,.23,0,.42-.31.46-.94.13-1.89.28-2.91.44V42.16Z"/><path class="cls-2" d="M40.78,60.36a49.52,49.52,0,0,0,7.63-1.29l-6.3-.61-11,.44A26,26,0,0,0,40.78,60.36Z"/><path class="cls-2" d="M70.06,2.67c-2,1.2-3.65,2-4.13,2.22l-.37.19-.26.14-4.64,2.5-.36.19-.36.19-.33.18L45.42,16q-8.62,4.65-17.23,9.32c-2.55,1.38-5.1,2.75-7.6,4.21a15.1,15.1,0,0,0-4.79,4.42l-.69,1a8.15,8.15,0,0,1,.23-1c.34-1.32.61-2.67,1-4A23.36,23.36,0,0,1,23,19.57a23.76,23.76,0,0,1,19.27-6.33,3.84,3.84,0,0,0,3.12-.55h0l.25-.16c.16-.08.34-.15.55-.26l-.1,0-.71-.17A25.93,25.93,0,0,0,15.69,27a25.87,25.87,0,0,0,11,33.35,26.32,26.32,0,0,0,34.07-7.55,26,26,0,0,0,4.66-18.66,22,22,0,0,0-2.9-8.93,3.79,3.79,0,0,0-.45.47c-.28.47-.71.84-.37,1.54a22.4,22.4,0,0,1,2.12,7.53,24.34,24.34,0,0,1-1,10.11,24.08,24.08,0,0,1-8,11.77c-.57.46-1.18.86-1.86,1.35a4.94,4.94,0,0,1-.08-.74c0-.69.07-1.39.07-2.08q0-5.37,0-10.75a.82.82,0,0,0-.34-.61c-1-.41-2.12-.76-3.26-1.16v4.38c-.77-.18-1.47-.36-2.17-.5-.43-.08-.56-.31-.55-.72,0-1.21,0-2.42,0-3.63a.6.6,0,0,0-.5-.71A9.29,9.29,0,0,1,45,41.07l-1.69-.62v17L52,58.62a1.92,1.92,0,0,1-.14.18,26.28,26.28,0,0,1-7.23,2.65,25.85,25.85,0,0,1-7.39.45,23.89,23.89,0,0,1-12.67-5,15.59,15.59,0,0,1-4.34-4.63,6.41,6.41,0,0,1-.93-3.62,6.66,6.66,0,0,1,1.67-3.93A11.36,11.36,0,0,1,28,41c2.47-.42,5-.76,7.42-1.13,2.63-.39,5.25-.75,7.87-1.17a7.53,7.53,0,0,0,3.8-1.33,29.51,29.51,0,0,0,2.53-2.59,4.85,4.85,0,0,0,.47-.73.84.84,0,0,0-.21,0l-6.3,1.38c-4.77,1.07-9.53,2.13-14.29,3.22a15.71,15.71,0,0,0-7.94,4.25c-.4.41-.78.83-1.17,1.25a3.41,3.41,0,0,1,.47-1,12.78,12.78,0,0,1,5.5-4.77,33.11,33.11,0,0,1,6.09-1.83c5.07-1.2,10.15-2.36,15.22-3.55a31.53,31.53,0,0,0,3.88-1,14.84,14.84,0,0,0,6.48-5c.34-.43.61-.9,1-1.43l-2.72.83-9.2,2.91c-3.26,1-6.52,2-9.78,3.07q-3.66,1.16-7.29,2.38a19.12,19.12,0,0,0-6.43,3.43,22.41,22.41,0,0,0-3.43,3.72c-.09.11-.2.21-.29.32a3.33,3.33,0,0,1,.37-.88,15.47,15.47,0,0,1,8.64-7.59q7.06-2.51,14.18-4.86c4.61-1.54,9.24-3,13.87-4.51a12.77,12.77,0,0,0,4.35-2.16c2.27-1.87,3.37-4.43,4.21-7.21l-.25.05c-2,.91-4,1.83-6,2.72q-3.46,1.53-6.95,3c-4.25,1.83-8.51,3.63-12.75,5.48-3.91,1.72-7.83,3.44-11.7,5.25a16.91,16.91,0,0,0-8.13,8.32c-.07.14-.16.28-.24.42a5.26,5.26,0,0,1,.37-1.12,16.9,16.9,0,0,1,4-6.21,22.67,22.67,0,0,1,6.3-4.11c2.36-1.08,4.71-2.17,7.08-3.22,2.91-1.31,5.84-2.59,8.76-3.87,2.57-1.13,5.15-2.22,7.71-3.36q4.83-2.14,9.64-4.34A11,11,0,0,0,65,13a10.82,10.82,0,0,0,2.4-2.24,15.29,15.29,0,0,0,2.87-6.42c.13-.61.22-1.24.34-2ZM45.89,57a.23.23,0,0,1-.26.19l-.83-.13a.22.22,0,0,1-.19-.26l.08-.49a.22.22,0,0,1,.25-.19l.84.13a.22.22,0,0,1,.18.26Zm2,.23a.22.22,0,0,1-.25.19l-.84-.13a.22.22,0,0,1-.18-.25l.07-.5a.23.23,0,0,1,.26-.19l.83.13a.23.23,0,0,1,.19.26Zm2,.23a.22.22,0,0,1-.26.19l-.83-.13a.22.22,0,0,1-.19-.25l.08-.5a.23.23,0,0,1,.26-.19l.83.13A.23.23,0,0,1,50,57Zm2,.39a.22.22,0,0,1-.26.19l-.83-.13a.22.22,0,0,1-.19-.25l.08-.5a.22.22,0,0,1,.25-.19l.84.13a.23.23,0,0,1,.19.26Z"/></g></g></svg>