<?xml version="1.0" encoding="utf-8"?>
<!-- Generator: Adobe Illustrator 25.4.1, SVG Export Plug-In . SVG Version: 6.00 Build 0)  -->
<svg version="1.1" id="Layer_2_00000177448523498405335690000010962890502376934583_"
	 xmlns="http://www.w3.org/2000/svg" xmlns:xlink="http://www.w3.org/1999/xlink" x="0px" y="0px" viewBox="0 0 92.7 99.3"
	 style="enable-background:new 0 0 92.7 99.3;" xml:space="preserve">
<style type="text/css">
	.st0{fill:#1C75BC;}
	.st1{fill:#FFFFFF;}
</style>
<g>
	<path class="st0" d="M92.7,0c-0.2,1.2-0.3,2.2-0.6,3.2c-0.8,3.8-2.2,7.3-4.7,10.4c-1.1,1.4-2.4,2.6-3.9,3.6c-1,0.7-2,1.2-3.1,1.7
		c-5.2,2.4-10.4,4.7-15.6,7c-4.2,1.9-8.3,3.6-12.5,5.4c-4.7,2.1-9.5,4.2-14.2,6.3c-3.8,1.7-7.6,3.5-11.5,5.2
		c-3.7,1.7-7.2,3.8-10.2,6.7c-3,2.8-5,6.3-6.5,10.1c-0.2,0.6-0.5,1.2-0.6,1.8c0.1-0.2,0.3-0.5,0.4-0.7c2.9-6,7.1-10.6,13.2-13.5
		c6.3-2.9,12.6-5.7,18.9-8.5c6.9-3,13.8-5.9,20.6-8.9c3.8-1.6,7.5-3.2,11.2-4.9c3.2-1.4,6.5-2.9,9.7-4.4c0.1,0,0.2,0,0.4-0.1
		c-1.4,4.5-3.1,8.6-6.8,11.7c-2.1,1.7-4.5,2.7-7,3.5c-7.5,2.4-15,4.8-22.5,7.3c-7.7,2.6-15.3,5.2-23,7.9c-6.2,2.2-10.9,6.4-14,12.3
		c-0.2,0.4-0.5,0.9-0.6,1.4c0.1-0.2,0.3-0.3,0.5-0.5c1.6-2.2,3.4-4.3,5.6-6c3.1-2.6,6.6-4.3,10.4-5.5c3.9-1.3,7.8-2.6,11.8-3.8
		c5.3-1.7,10.6-3.3,15.8-5c5-1.6,9.9-3.1,14.9-4.7c1.4-0.4,2.8-0.9,4.4-1.3c-0.6,0.9-1,1.6-1.6,2.3c-2.8,3.6-6.2,6.5-10.5,8.1
		c-2,0.7-4.2,1.1-6.3,1.6c-8.2,1.9-16.4,3.8-24.6,5.8c-3.3,0.8-6.7,1.5-9.9,3c-3.7,1.7-6.7,4.3-8.9,7.7c-0.3,0.5-0.6,1-0.8,1.6
		c0.6-0.7,1.2-1.4,1.9-2c3.6-3.6,7.9-5.8,12.9-6.9c7.7-1.8,15.4-3.5,23.1-5.2c3.4-0.8,6.8-1.5,10.2-2.2c0.1,0,0.2,0,0.3,0
		c-0.3,0.4-0.5,0.9-0.8,1.2c-1.3,1.4-2.6,3-4.1,4.2c-1.7,1.4-4,1.8-6.2,2.2c-4.2,0.7-8.5,1.3-12.7,1.9c-4,0.6-8,1.2-12,1.8
		c-4.5,0.7-8.4,2.5-11.5,6.1c-1.6,1.8-2.5,3.9-2.7,6.4c-0.1,2.1,0.5,4.1,1.5,5.9c1.7,3.1,4.3,5.4,7,7.5c6,4.7,12.9,7.3,20.5,8.1
		c4,0.4,8,0.1,12-0.7c4.1-0.8,8-2.3,11.7-4.3c0,0,0.1-0.1,0.2-0.3c-4.7-0.7-9.3-1.3-13.9-1.9V61.7c1,0.4,1.9,0.7,2.7,1
		c0.6,0.2,1.2,0.5,1.9,0.7c0.7,0.2,0.8,0.5,0.8,1.2c0,2,0,3.9,0,5.9c0,0.7,0.2,1,0.9,1.2c1.1,0.2,2.3,0.5,3.5,0.8v-7.1
		c1.8,0.7,3.6,1.2,5.3,1.9c0.3,0.1,0.5,0.7,0.6,1c0.1,5.8,0.1,11.6,0.1,17.4c0,1.1-0.1,2.2-0.1,3.4c0,0.3,0.1,0.7,0.1,1.2
		c1.1-0.8,2.1-1.4,3-2.2c6.2-5.1,10.6-11.4,12.9-19.1c1.7-5.3,2.2-10.8,1.6-16.4c-0.5-4.3-1.5-8.3-3.4-12.2
		c-0.6-1.1,0.2-1.7,0.6-2.5c0.2-0.3,0.4-0.5,0.7-0.8c2.7,4.5,4.1,9.4,4.7,14.5c1.3,11-1.1,21.2-7.6,30.2
		c-12.9,18-37.1,22.3-55.2,12.2C1.9,83-5,59.5,3.7,40c9.3-20.8,30.1-28.1,48-24.2c0.4,0.1,0.8,0.2,1.2,0.3c0,0,0.1,0,0.2,0
		c-0.3,0.2-0.6,0.3-0.9,0.4l-0.4,0.3l0,0c-1.5,1.2-3.2,1.1-5,0.9c-11.9-1.3-22.3,2.2-31.2,10.2c-5.1,4.6-8.6,10.2-10.7,16.7
		c-0.7,2.1-1.1,4.3-1.7,6.4c-0.1,0.5-0.3,1.1-0.4,1.7c0.4-0.5,0.7-1.1,1.1-1.6c2.1-3,4.7-5.4,7.8-7.2c4.1-2.4,8.2-4.6,12.3-6.8
		c9.3-5,18.6-10.1,27.9-15.1c7.7-4.1,15.3-8.3,23-12.4c0.2-0.1,0.4-0.2,0.5-0.3C75.6,9.2,75.8,9.1,76,9l0.6-0.3l7.5-4.1l0.4-0.2
		c0.4-0.2,0.6-0.3,0.6-0.3c0.8-0.4,3.4-1.7,6.7-3.6C92.2,0.3,92.5,0.1,92.7,0L92.7,0z"/>
	<path class="st0" d="M47.6,61.6v27.5c-1.1,0.1-2.2,0.2-3.4,0.2c-4.8,0.3-9.6,0.6-14.4,0.9c-1,0.1-2,0.1-2.9,0.2
		c-1.1,0-1.2,0-1.2-1.2c0-3.9,0-7.7,0-11.6c0-3.6,0-7.2-0.1-10.7c0-0.5,0.1-0.7,0.7-0.8c2.2-0.5,4.5-1,6.7-1.5c0.1,0,0.2,0,0.5-0.1
		v7.7c1.7-0.3,3.2-0.5,4.7-0.7c0.5-0.1,0.5-0.4,0.5-0.8c0-2.1,0-4.2,0-6.3v-0.7C41.6,63,44.6,62.3,47.6,61.6L47.6,61.6z"/>
	<path class="st0" d="M56.7,91.9c0,0-7.5,1.9-12.4,2.1c-4.6,0.2-9.8-0.4-15.6-2.4l17.8-0.7L56.7,91.9L56.7,91.9z"/>
	<path class="st1" d="M51,87.1l1.6,0.3c0.1,0,0.2,0.1,0.2,0.3l-0.2,1.1c0,0.1-0.1,0.2-0.3,0.2l-1.6-0.3c-0.1,0-0.2-0.1-0.2-0.3
		l0.2-1.1C50.7,87.1,50.8,87,51,87.1z"/>
	<path class="st1" d="M54.2,87.4l1.6,0.3c0.1,0,0.2,0.1,0.2,0.3L55.8,89c0,0.1-0.1,0.2-0.3,0.2L53.9,89c-0.1,0-0.2-0.1-0.2-0.3
		l0.2-1.1C53.9,87.5,54.1,87.4,54.2,87.4z"/>
	<path class="st1" d="M57.4,87.8l1.6,0.3c0.1,0,0.2,0.1,0.2,0.3l-0.2,1.1c0,0.1-0.1,0.2-0.3,0.2l-1.6-0.3c-0.1,0-0.2-0.1-0.2-0.3
		l0.2-1.1C57.2,87.9,57.3,87.8,57.4,87.8z"/>
	<path class="st1" d="M60.7,88.4l1.6,0.3c0.1,0,0.2,0.1,0.2,0.3L62.3,90c0,0.1-0.1,0.2-0.3,0.2L60.4,90c-0.1,0-0.2-0.1-0.2-0.3
		l0.2-1.1C60.4,88.5,60.6,88.4,60.7,88.4z"/>
</g>
</svg>
