<?xml version="1.0" encoding="utf-8"?>
<!-- Generator: Adobe Illustrator 25.4.1, SVG Export Plug-In . SVG Version: 6.00 Build 0)  -->
<svg version="1.1" id="Layer_3" xmlns="http://www.w3.org/2000/svg" xmlns:xlink="http://www.w3.org/1999/xlink" x="0px" y="0px"
	 viewBox="0 0 500 500" style="enable-background:new 0 0 500 500;" xml:space="preserve">
<style type="text/css">
	.st0{fill:#FFFFFF;}
	.st1{fill:#DDD4BC;}
	.st2{fill:#EAE5DC;}
	.st3{fill:#70BA7C;}
	.st4{fill:#042C31;}
	.st5{fill:#67999B;}
	.st6{fill:#FFDB8A;}
	.st7{opacity:0.5;}
	.st8{fill:#F9C1BB;}
	.st9{fill:#477272;}
	.st10{fill:#B7D5D4;}
	.st11{fill:#CCC6BA;}
	.st12{fill:#FFBB90;}
	.st13{fill:#FF847B;}
	.st14{fill:#FF8883;}
	.st15{fill:#A8C2BB;}
</style>
<rect class="st0" width="500" height="500"/>
<g>
	<rect x="138.2" y="304.3" class="st1" width="178.5" height="9.1"/>
</g>
<g>
	<rect x="119.1" y="350.7" class="st1" width="178.5" height="9.1"/>
</g>
<g>
	<path class="st2" d="M433.2,246.2h-32.1c-2.2,0-4,1.8-4,4v14.4c0,2.2,1.8,4,4,4h32.1c2.2,0,4-1.8,4-4v-14.4
		C437.3,248,435.5,246.2,433.2,246.2z"/>
</g>
<g>
	<path class="st2" d="M461,277.7h-32.1c-2.2,0-4,1.8-4,4v14.4c0,2.2,1.8,4,4,4H461c2.2,0,4-1.8,4-4v-14.4
		C465,279.5,463.2,277.7,461,277.7z"/>
</g>
<g>
	<g>
		<path class="st3" d="M205.9,307.6c1,3.7-3.7,6.8-5,3.9c-3.1,1.7-5.4,4.9-5.4,4.9c0.9,3.1-1.5,7.2-5,6.5c-6.5,12.3-1,32.3-1,32.3
			c3.6-10.2,15.5-15,15.8-15c0.3,0,3.4-4.7,3.4-4.7c-4.8-5.3,4.3-11.8,8.9-7.5l4-3.1c-6.7-7.8,5.2-11.2,6.5-3.6
			c2.5-4.2,7.1-6.3,13-7C230.8,304.2,218.2,302.4,205.9,307.6z"/>
	</g>
	<g>
		<path class="st4" d="M212,312.1c-16,8.4-21.2,32.9-22.8,43.1c0,0.2,0.1,0.3,0.3,0.4c0,0,0,0,0,0c0.2,0,0.3-0.1,0.3-0.3
			c1.5-10.1,6.7-34.4,22.4-42.6c8-4.2,17.7-3.5,28.7,1.9c0.2,0.1,0.3,0,0.4-0.1c0.1-0.2,0-0.3-0.1-0.4
			C230,308.5,220.2,307.8,212,312.1z"/>
	</g>
	<g>
		<polygon class="st5" points="169.2,416.1 209.8,416.1 215.2,355.2 163.8,355.2 		"/>
	</g>
	<g>
		<path class="st4" d="M214.4,363.9h-49.8c-0.2,0-0.3,0.1-0.3,0.3c0,0.2,0.1,0.3,0.3,0.3h49.8c0.2,0,0.3-0.1,0.3-0.3
			C214.7,364,214.6,363.9,214.4,363.9z"/>
	</g>
	<g>
		<path class="st4" d="M212.5,385.3h-47.9c-0.2,0-0.3,0.1-0.3,0.3c0,0.2,0.1,0.3,0.3,0.3h47.9c0.2,0,0.3-0.1,0.3-0.3
			C212.8,385.5,212.7,385.3,212.5,385.3z"/>
	</g>
	<g>
		<path class="st0" d="M212.1,316.1c-1,0.4-1.5,1.4-1.2,2.2s1.4,1.1,2.4,0.6s1.5-1.4,1.2-2.2C214.2,316,213.1,315.7,212.1,316.1z"/>
	</g>
	<g>
		<path class="st0" d="M203.4,322.5c-1.1,0.9-1.4,2.3-0.7,3.1c0.7,0.8,2.1,0.8,3.2-0.1s1.4-2.3,0.7-3.1
			C206,321.6,204.5,321.6,203.4,322.5z"/>
	</g>
	<g>
		<path class="st0" d="M201.9,315.5c-0.7,0.6-0.9,1.5-0.5,2s1.3,0.5,2,0c0.7-0.6,0.9-1.5,0.5-2S202.6,314.9,201.9,315.5z"/>
	</g>
	<g>
		<path class="st0" d="M192.5,329.5c-0.3,0.5-0.3,1.2,0.1,1.4c0.4,0.3,1,0.1,1.4-0.5s0.3-1.2-0.1-1.4
			C193.5,328.8,192.9,329,192.5,329.5z"/>
	</g>
	<g>
		<path class="st3" d="M192,355.2c14.6-12.6,32.7-10,32.7-10C200.8,336.8,192,355.2,192,355.2z"/>
	</g>
	<g>
		<path class="st3" d="M187.4,339.1c-12.1-26-32.2-13.3-32.2-13.3c23.2-3.6,35.2,24.7,35.2,24.7c1.2-35.1-8.1-54-8.1-54
			C179.3,309.1,187.4,339.1,187.4,339.1z"/>
	</g>
	<g>
		<path class="st3" d="M163,346.2c0,0,18.4,0.4,26.5,10.3C189.5,356.5,177.2,339.1,163,346.2z"/>
	</g>
</g>
<g>
	<g>
		<rect x="50.6" y="355.2" class="st6" width="82.4" height="60.8"/>
	</g>
	<g>
		<rect x="67.7" y="316.9" class="st6" width="51.9" height="38.3"/>
	</g>
	<g class="st7">
		<g>
			<rect x="109.3" y="355.2" class="st8" width="23.8" height="60.8"/>
		</g>
	</g>
	<g class="st7">
		<g>
			<rect x="99.3" y="316.9" class="st8" width="20.3" height="38.3"/>
		</g>
	</g>
	<g>
		<rect x="50.6" y="354.9" class="st0" width="82.4" height="0.6"/>
	</g>
	<g>
		<rect x="59.9" y="403.4" class="st0" width="18.2" height="10"/>
	</g>
	<g>
		<rect x="79.2" y="318.7" class="st0" width="9" height="3.3"/>
	</g>
</g>
<g>
	<g>
		<g>
			<rect x="247" y="299.6" class="st6" width="56.7" height="44.8"/>
		</g>
		<g class="st7">
			<g>
				<rect x="282.7" y="299.6" class="st8" width="21" height="44.8"/>
			</g>
		</g>
		<g>
			<rect x="252.7" y="307.5" class="st0" width="22.6" height="22.9"/>
		</g>
	</g>
	<g>
		<g>
			<rect x="231.8" y="344.5" class="st6" width="119.9" height="71.2"/>
		</g>
		<g class="st7">
			<g>
				<rect x="231.8" y="344.5" class="st8" width="36.5" height="71.6"/>
			</g>
		</g>
		<g>
			<rect x="318" y="394.6" class="st0" width="29.4" height="16.4"/>
		</g>
		<g>
			<path class="st4" d="M256.5,350.5h-13.8c-2.1,0-3.8,1.7-3.8,3.8l0,0c0,2.1,1.7,3.8,3.8,3.8h13.8c2.1,0,3.8-1.7,3.8-3.8l0,0
				C260.3,352.2,258.6,350.5,256.5,350.5z"/>
		</g>
	</g>
	<g>
		<g>
			<rect x="303.7" y="308" class="st6" width="48" height="36.5"/>
		</g>
		<g class="st7">
			<g>
				<rect x="321.1" y="308" class="st8" width="30.6" height="36.5"/>
			</g>
		</g>
	</g>
</g>
<g>
	<rect x="231.8" y="344.2" class="st0" width="119.9" height="0.6"/>
</g>
<g>
	<g>
		<g>
			<path class="st9" d="M453,350.5c0-0.4-0.2-0.8-0.5-1l-13.4-120.3l-2.5,0.3l6.6,59h-51.3l-5.4-59.2l-2.5,0.2L401,416.2l2.5-0.2
				l-5.9-64.2h52.5l7.2,64.4l2.5-0.3l-7.2-64.6C452.9,351.1,453,350.8,453,350.5z M397.4,349.2l-5.3-58.2h51.3l6.5,58.2L397.4,349.2
				L397.4,349.2z"/>
		</g>
	</g>
	<g>
		<g>
			<path class="st5" d="M437.5,235.5h-59.6c-0.7,0-1.3,0.6-1.3,1.3s0.6,1.3,1.3,1.3h59.6c0.7,0,1.3-0.6,1.3-1.3
				S438.2,235.5,437.5,235.5z"/>
		</g>
	</g>
	<g>
		<g>
			<path class="st10" d="M440.6,227.6h-61.6c-2.4,0-4.4,2-4.4,4.4c0,2.4,2,4.4,4.4,4.4h61.6c2.4,0,4.4-2,4.4-4.4
				C444.9,229.6,443,227.6,440.6,227.6z"/>
		</g>
	</g>
	<g>
		<path class="st5" d="M428,288.5h-51.3l6.6-59l-2.5-0.3l-13.4,120.3c-0.3,0.2-0.5,0.6-0.5,1c0,0.3,0.1,0.6,0.3,0.8l-7.2,64.6
			l2.5,0.3l7.2-64.4h52.5l-5.9,64.2l2.5,0.2L436,229.5l-2.5-0.2L428,288.5z M422.4,349.2H370l6.5-58.2h51.3L422.4,349.2z"/>
	</g>
</g>
<g>
	<rect x="196.6" y="278" class="st1" width="116.7" height="9.1"/>
</g>
<g>
	<path class="st1" d="M194,72.9c-0.7,0-1.3,0.6-1.3,1.3v199.2c0,0.7,0.6,1.3,1.3,1.3s1.3-0.6,1.3-1.3V74.2
		C195.3,73.5,194.7,72.9,194,72.9z"/>
</g>
<g>
	<path class="st1" d="M309.3,85.2H200.6c-0.7,0-1.3,0.6-1.3,1.3v186.8c0,0.7,0.6,1.3,1.3,1.3h108.6c0.7,0,1.3-0.6,1.3-1.3V86.5
		C310.5,85.8,310,85.2,309.3,85.2z M260.5,272.1h-58.6v-90.9h58.6V272.1z M260.5,178.6h-58.6V87.8h58.6V178.6z M308,272.1h-45v-90.9
		h45V272.1z M308,178.6h-45V87.8h45V178.6z"/>
</g>
<g>
	<path class="st2" d="M103.2,199.9H71.1c-2.2,0-4,1.8-4,4v14.4c0,2.2,1.8,4,4,4h32.1c2.2,0,4-1.8,4-4v-14.4
		C107.2,201.7,105.4,199.9,103.2,199.9z"/>
</g>
<g>
	<path class="st2" d="M135.4,235h-32.1c-2.2,0-4,1.8-4,4v14.4c0,2.2,1.8,4,4,4h32.1c2.2,0,4-1.8,4-4V239
		C139.4,236.8,137.6,235,135.4,235z"/>
</g>
<g>
	<path class="st2" d="M66.7,235H34.5c-2.2,0-4,1.8-4,4v14.4c0,2.2,1.8,4,4,4h32.1c2.2,0,4-1.8,4-4V239C70.7,236.8,68.9,235,66.7,235
		z"/>
</g>
<g>
	<path class="st2" d="M433.3,98.7h-32.1c-2.2,0-4,1.8-4,4v14.4c0,2.2,1.8,4,4,4h32.1c2.2,0,4-1.8,4-4v-14.4
		C437.3,100.5,435.5,98.7,433.3,98.7z"/>
</g>
<g>
	<path class="st2" d="M109.7,132.8H77.6c-2.2,0-4,1.8-4,4v14.4c0,2.2,1.8,4,4,4h32.1c2.2,0,4-1.8,4-4v-14.4
		C113.7,134.6,111.9,132.8,109.7,132.8z"/>
</g>
<g>
	<path class="st2" d="M465.5,133.8h-32.1c-2.2,0-4,1.8-4,4v14.4c0,2.2,1.8,4,4,4h32.1c2.2,0,4-1.8,4-4v-14.4
		C469.5,135.6,467.7,133.8,465.5,133.8z"/>
</g>
<g>
	<path class="st2" d="M154,106.4h-32.1c-2.2,0-4,1.8-4,4v14.4c0,2.2,1.8,4,4,4H154c2.2,0,4-1.8,4-4v-14.4
		C158,108.2,156.2,106.4,154,106.4z"/>
</g>
<g>
	<path class="st2" d="M396.8,133.8h-32.1c-2.2,0-4,1.8-4,4v14.4c0,2.2,1.8,4,4,4h32.1c2.2,0,4-1.8,4-4v-14.4
		C400.8,135.6,399,133.8,396.8,133.8z"/>
</g>
<g>
	<path class="st11" d="M161.1,417.3c-26.7,0-48.3,2.2-48.3,4.9s21.6,4.9,48.3,4.9s48.3-2.2,48.3-4.9S187.8,417.3,161.1,417.3z"/>
</g>
<g>
	<path class="st11" d="M275.1,417.3c-41.4,0-74.9,2.2-74.9,4.9s33.5,4.9,74.9,4.9c41.4,0,74.9-2.2,74.9-4.9S316.5,417.3,275.1,417.3
		z"/>
</g>
<g>
	<g>
		<path class="st12" d="M234.7,406.5c2.2,7.1,7.1,8,15.1,2.5l3.8-10.2l-16.5-2.9L234.7,406.5z"/>
	</g>
	<g>
		<path class="st13" d="M310.9,391.3l6.6,8.7c8.2,3.6,14.6,3.7,16.2-5.9l-10-13.6L310.9,391.3z"/>
	</g>
	<g>
		<path class="st14" d="M309.6,156.2c-25.7-1.9-52.9,1.9-66.1,13.4c-13.2,11.6,0.9,34,0.9,34l5.6,50c15.9,3.3,33.7,3,53,0
			c1.5-22.4,1.4-45.4,0-69l10.5-3.1C310.7,174.3,309.7,165.6,309.6,156.2z"/>
	</g>
	<g>
		<path class="st4" d="M282.5,153.1c-0.2,0-0.3,0.2-0.2,0.4c0,0.1,2.7,14.4-9.1,17.5c-11.9,3.2-19.2-8.5-19.3-8.6
			c-0.1-0.1-0.3-0.2-0.4-0.1c-0.1,0.1-0.2,0.3-0.1,0.4c0.1,0.1,5.9,9.4,15.7,9.4c1.3,0,2.8-0.2,4.2-0.6c12.4-3.3,9.6-18.1,9.6-18.2
			C282.8,153.2,282.6,153.1,282.5,153.1z"/>
	</g>
	<g>
		<path class="st8" d="M309.6,156.2c-4.1-0.3-8.3-0.5-12.4-0.5c0,0.3,0.1,0.6,0,0.8c-16.2,39.6-41.3,20.7-41.3,20.7l5.1,8.6
			l-15.3,19.3l-1.3-1.6l5.6,50c15.9,3.3,33.7,3,53,0c1.5-22.4,1.4-45.4,0-69l10.5-3.1C310.7,174.3,309.7,165.6,309.6,156.2z"/>
	</g>
	<g>
		<g>
			<path class="st12" d="M250.7,122.3c0,0,6.1,30.7,10.4,33.4c4.4,2.7,18.7-7.9,18.7-7.9l-4.5-36.5
				C275.4,111.3,250.4,110.5,250.7,122.3z"/>
		</g>
		<g>
			<path class="st4" d="M274.5,105.3c-19.9,0.8-24.1,1.1-24.4,1.6c-0.3,0.5-0.1,4.3-0.1,4.3s-4-1.4-4.1-0.9
				c-0.1,0.5,0.9,4.6,0.9,4.6s-4.2-1-3.3,0.5c2.5,4,7.2,6.8,7.2,6.8c3.5-4.9,4.6-1.6,7.1-4.1c2.8-2.7,11-5.9,13.8-5.6
				c2.7,0.3,5.8,15.1,5.8,15.1S280,108.2,274.5,105.3z"/>
		</g>
		<g>
			<path class="st4" d="M260.7,139.9c-1.3,0.1-3,0-3.5-1.1c-0.6-1.3,0.4-3.5,2.4-5.4c0.2-0.2,0.2-0.4,0-0.6c-0.2-0.2-0.4-0.2-0.6,0
				c-2.3,2.2-3.4,4.8-2.6,6.4c0.4,0.8,1.2,1.6,3.4,1.6c0.3,0,0.6,0,1,0c0.2,0,0.4-0.2,0.4-0.5C261.1,140,260.9,139.9,260.7,139.9z"
				/>
		</g>
		<g>
			<path class="st4" d="M253.6,122.8c-1,0.5-1.1,2.1-1,4.5c0,0.2,0.2,0.4,0.4,0.4c0,0,0,0,0,0c0.2,0,0.4-0.2,0.4-0.4
				c0-0.9-0.2-3.3,0.5-3.7c0.2-0.1,0.7-0.1,1.9,0.8c0.2,0.1,0.5,0.1,0.6-0.1c0.1-0.2,0.1-0.5-0.1-0.6
				C255.1,122.7,254.3,122.4,253.6,122.8z"/>
		</g>
		<g>
			<path class="st4" d="M269.1,118.6c-2.9-1.4-4.9-1.6-6.1-0.7c-1,0.7-1.4,2.2-1.1,4.4c0,0.2,0.2,0.4,0.4,0.4c0,0,0,0,0,0
				c0.2,0,0.4-0.2,0.4-0.5c-0.2-1.9,0.1-3.1,0.8-3.6c0.9-0.7,2.7-0.4,5.3,0.8c0.2,0.1,0.5,0,0.6-0.2
				C269.4,118.9,269.3,118.7,269.1,118.6z"/>
		</g>
		<g>
			<g>
				<g>
					<path class="st4" d="M264.1,129.1c0.4,2.2,2.3,1.8,1.9-0.3C265.6,126.5,263.7,126.9,264.1,129.1z"/>
				</g>
			</g>
		</g>
		<g>
			<g>
				<g>
					<path class="st4" d="M254.7,132.8c0.6,1.7,2.4,1.1,1.8-0.7C255.9,130.4,254.1,131,254.7,132.8z"/>
				</g>
			</g>
		</g>
		<g>
			<path class="st4" d="M260,145.7c-0.5,0.5,4.3,4.1,7.6,1.9c3.3-2.2,0.8-10.1,0.8-10.1L260,145.7z"/>
		</g>
	</g>
	<g>
		<path class="st4" d="M270.7,169.5c6.9-0.5,9.4-8.2,10.3-12.9c-9,1-17.4,2.8-24.5,5.6C258.2,164.6,262.9,170,270.7,169.5z"/>
	</g>
	<g>
		<path class="st6" d="M308.2,94.9l-40.7,4c1.2,23.4,4.2,45.1,9.1,62.7l37-2.2l36.5-8.5L344,93.4L308.2,94.9z"/>
	</g>
	<g>
		<path class="st4" d="M293.7,99.3l-11.2,1.1c-1.7,0.2-3,1.7-2.9,3.4c0.1,1.8,1.7,3.1,3.5,2.9l11.2-1c1.7-0.2,3-1.6,2.9-3.3l0,0
			C297.1,100.5,295.5,99.1,293.7,99.3z"/>
	</g>
	<g>
		<polygon class="st0" points="275.8,147.1 277.2,157.6 289.3,156.2 287.9,145.9 		"/>
	</g>
	<g>
		<polygon class="st0" points="320.4,153.5 345.8,148.1 345.8,140.7 319.3,145.2 		"/>
	</g>
	<g class="st7">
		<polygon class="st8" points="308.2,94.9 313.6,159.3 350.1,150.8 344,93.4 		"/>
	</g>
	<g>
		<g>
			<path class="st12" d="M296.7,138.9c-1.4-5.5-4.1-2.2-4.1-2.2c-0.9-3.2-3-3.4-3.7-3c-0.7,0.4-0.5,3.7-0.5,3.7s-1.4-1.8-2.4-1.2
				c-1,0.6-1.1,8.4-0.9,11.2c0.2,2.8,2.5,20.5,2.5,20.5c-3.3,6.4-20.5,25.3-20.5,25.3l-6-7.4c-5.8-1.1-15,9.6-15.3,19.3
				c0,0,14.2,25.1,30,21.5c16.6-3.8,23.8-48.7,26-58.5c2.2-9.9-0.2-14.9-1.2-23.5C299.6,136,296.7,138.9,296.7,138.9z"/>
		</g>
		<g>
			<path class="st4" d="M298.6,145.9c-7.1-0.9-11.2,0.8-11.4,0.9c-0.2,0.1-0.2,0.3-0.2,0.4c0.1,0.1,0.2,0.2,0.3,0.2c0,0,0.1,0,0.1,0
				c0,0,4.2-1.7,11.1-0.9c0.2,0,0.3-0.1,0.4-0.3C298.9,146,298.8,145.9,298.6,145.9z"/>
		</g>
		<g>
			<path class="st4" d="M288.4,137.1c-0.2,0-0.3,0.2-0.3,0.3l0.8,9c0,0.2,0.2,0.3,0.3,0.3c0,0,0,0,0,0c0.2,0,0.3-0.2,0.3-0.3l-0.8-9
				C288.7,137.3,288.6,137.1,288.4,137.1z"/>
		</g>
		<g>
			<path class="st4" d="M292.5,136.4c-0.2,0-0.3,0.2-0.3,0.4l1.1,9.2c0,0.2,0.2,0.3,0.3,0.3c0,0,0,0,0,0c0.2,0,0.3-0.2,0.3-0.4
				l-1.1-9.2C292.9,136.5,292.7,136.4,292.5,136.4z"/>
		</g>
		<g>
			<path class="st4" d="M296.6,138.6c-0.2,0-0.3,0.2-0.3,0.3l0.7,7c0,0.2,0.2,0.3,0.3,0.3c0,0,0,0,0,0c0.2,0,0.3-0.2,0.3-0.3l-0.7-7
				C297,138.7,296.8,138.5,296.6,138.6z"/>
		</g>
		<g>
			<path class="st4" d="M266.9,193c-0.2,0.1-4.1,3.4-6.1,5.8c-0.1,0.1-0.1,0.3,0,0.4c0.1,0.1,0.1,0.1,0.2,0.1c0.1,0,0.2,0,0.2-0.1
				c2-2.3,6-5.6,6-5.7c0.1-0.1,0.2-0.3,0-0.4C267.2,192.9,267,192.9,266.9,193z"/>
		</g>
	</g>
	<g>
		<path class="st4" d="M350.1,150.5l-36.5,8.5c-0.2,0-0.3,0.2-0.2,0.4c0,0.1,0.2,0.2,0.3,0.2c0,0,0,0,0.1,0l36.5-8.5
			c0.2,0,0.3-0.2,0.2-0.4C350.4,150.6,350.2,150.5,350.1,150.5z"/>
	</g>
	<g>
		<path class="st12" d="M334,93.8c-2.2-4-7.3-6.7-11-5.6s-9.5,2.4-11.3,2.5c-1.8,0.1-2.8,4.2-2.8,4.2l4.7-0.2c0.5,0,3.1,1.4,3.1,1.4
			c0.6,3,3.7,8.6,6.9,14.3l-4.3,47.6l-5.6,1.3l-3.9,0.2c0,7.6,1.2,15.5,3.9,21.9c0,0,28.9-7.4,31.2-13.8c2.4-6.4-7.4-60.4-7.6-61
			C337.1,106,336.1,97.8,334,93.8z"/>
	</g>
	<g>
		<path class="st4" d="M316.9,96l0-0.1l-0.1-0.1c-0.9-0.6-2-1-3.1-1.4l-0.1,0l-4.8,0.2c-0.2,0-0.3,0.2-0.3,0.3
			c0,0.2,0.1,0.3,0.3,0.3l4.7-0.2c1.1,0.4,2,0.8,2.8,1.3c1.1,3.9,4.1,9.4,6.9,14.2l-4.6,51c0,0.2,0.1,0.3,0.3,0.3c0,0,0,0,0,0
			c0.2,0,0.3-0.1,0.3-0.3l4.6-51.1l0-0.1l0-0.1C321,105.4,318,99.9,316.9,96z"/>
	</g>
	<g>
		<path class="st4" d="M337.6,106.6c-0.5-6.7-2.9-12.1-2.9-12.1c-0.1-0.2-0.3-0.2-0.4-0.2c-0.2,0.1-0.2,0.3-0.2,0.4
			c0,0.1,2.3,5.3,2.8,11.9c0.2,1.9,0.9,5.8,1.8,10.8c2.5,13.1,6.6,35,5.8,50.2c0,0.2,0.1,0.3,0.3,0.3c0,0,0,0,0,0
			c0.2,0,0.3-0.1,0.3-0.3c0.8-15.2-3.3-37.2-5.8-50.3C338.4,112.4,337.7,108.5,337.6,106.6z"/>
	</g>
	<g>
		<path class="st4" d="M285.3,310.5c4.2-11.2,8.1-19.4,11.4-24.6c9.3-14.7,6.4-32.3,6.4-32.3h-53c-0.6,30.5-2.9,60.8,3.5,69.1
			c-8.5,16.7-21.3,63.4-24,73.5c-0.3,1,0.4,2,1.5,2.1l27.3,2.4c0.8,0.1,1.6-0.5,1.8-1.3c4.8-21.7,9.7-40.5,14.4-56.4l31.7,51.5
			c0.4,0.7,1.3,0.9,2,0.4l19-13.3c0.6-0.4,0.8-1.2,0.4-1.9L285.3,310.5z"/>
	</g>
	<g>
		<path class="st15" d="M274.4,270.9l-5.2-2.8c-0.2-0.1-0.5,0-0.6,0.2c-0.1,0.2,0,0.5,0.2,0.6l4.8,2.6l-20.4,51
			c-0.1,0.2,0,0.5,0.2,0.6c0.1,0,0.1,0,0.2,0c0.2,0,0.3-0.1,0.4-0.3l20.5-51.4C274.7,271.2,274.6,271,274.4,270.9z"/>
		<path class="st15" d="M292.9,292.6c-0.2-0.1-0.5,0-0.6,0.2c-0.1,0.3-11.6,26.2-18.2,50c-6.5,23.7-14.6,57.5-14.7,57.9
			c-0.1,0.2,0.1,0.5,0.3,0.5c0,0,0.1,0,0.1,0c0.2,0,0.4-0.1,0.4-0.3c0.1-0.3,8.2-34.1,14.7-57.8c6.5-23.7,18-49.6,18.1-49.9
			C293.2,293,293.1,292.7,292.9,292.6z"/>
	</g>
	<g>
		<path class="st4" d="M251.1,405.6c-5.4,1.7-10.8,1.7-16.2,0c-10.1,3.7-19.9,9.3-29.6,15.9c-1.4,1-0.7,3.2,1,3.2h41.2
			c2.3,0,4.2-1.8,4.3-4.1c0.2-4.8,0.4-12.1,0.3-12.8C251.9,406.6,251.1,405.6,251.1,405.6z"/>
	</g>
	<g>
		<path class="st4" d="M333.7,393.5c-3.8,3.7-9.2,5.8-16.2,6.5c-4,5.5-11.8,10.6-19.9,15.4c-1.6,0.9-0.9,3.4,0.9,3.4h12.6
			c11,0,21.7-4.3,29.4-12.2c0.2-0.2,0.3-0.4,0.5-0.5c1-1,1.1-2.6,0.3-3.7C338.9,398.8,336.4,395.9,333.7,393.5z"/>
	</g>
</g>
<g>
	<g>
		<path class="st12" d="M168.2,225.4l3.4,25.2l17.7,0.9c0.5-2.4-13.3-29.7-13.3-29.7L168.2,225.4z"/>
	</g>
	<g>
		<polygon class="st8" points="141.9,409.5 169.2,409.5 169.7,401.5 146,401.5 		"/>
	</g>
	<g>
		<polygon class="st13" points="157.9,409.5 169.2,409.5 169.7,401.5 157.9,401.5 		"/>
	</g>
	<g>
		<path class="st4" d="M143.7,406c-2.2,3.8-5.3,9-8.7,14.8c-1.3,2.2,0.3,5,2.9,5H156c2,0,3.5-1.7,3.3-3.6l-1.4-16.7
			C153.1,408.1,146.8,407.8,143.7,406z"/>
	</g>
	<g>
		<path class="st4" d="M169.4,405.5c-3.2,2.7-9.3,2-11.5,0l0,16.2c0,1.6,1.3,2.9,2.9,2.9h30c1.4,0,2-1.7,1-2.6
			C184.9,415.9,177.5,410.4,169.4,405.5z"/>
	</g>
	<g>
		<path class="st4" d="M135.8,273.6c0,0-5,12.8-5,20.7s12.8,108.7,12.8,108.7h27.2c0,0,8.7-96.4,8.7-106.7s-4.6-22.6-4.6-22.6
			L135.8,273.6L135.8,273.6z"/>
	</g>
	<g>
		<g>
			<g>
				<path class="st12" d="M135.7,176.9c-2.9-4.7-8.1-0.7-4.5,5.3c0.9,2.3,2.8,4.8,5.1,5.5c12.6,12.3,21.3,9.5,22.1,8.6
					c8.6-9.9-1.3-29.1-1.3-29.1C137.3,152.6,135.7,176.9,135.7,176.9z"/>
			</g>
			<g>
				<path class="st4" d="M153.2,159.3c-6.5-3.9-12.5-3.8-17.1-1.7c0.1-0.1,0.1-0.2,0.2-0.3c0.3-0.5,0.6-1.3,0.7-2.4
					c0.1-1.1-0.1-1.9-0.2-2.4c-0.1-0.5-0.2-0.8-0.3-0.8c-0.1,0-0.1,0.3-0.1,0.8c0,0.5,0,1.3,0,2.3c-0.1,1.2-0.4,1.9-0.5,2.4
					c0-0.2,0.1-0.4,0.1-0.7c0.1-1-0.2-2.2-0.9-3.4c-0.7-1.2-1.8-1.9-2.7-2.2c-1-0.3-1.8-0.3-2.5-0.2c-1.3,0.3-1.8,0.9-1.7,1
					c0.1,0.2,0.7-0.1,1.8-0.1c1.1,0,2.9,0.4,4.1,2.2c0.8,1.2,0.9,2.4,0.8,3.4c-0.3-6.8-10.7-5.9-14.5,4c-3.5,9,4.6,8,7.1,7.5
					c0,0,0,0,0,0c-0.6,7.9,3.9,13.3,3.9,13.3c-2-5.7,2-6.5,4.5-5.3c-3.1,2.9-2.3,14.7,2.7,20.3c-0.6-10.3,6.3-17.1,3.5-30.6
					c1.2-3.1,8.9-0.5,8.9-0.5c2.7-1.2,6.2,1.1,6.2,1.1c2.4,4.9,4,10,4.6,15.1C168.4,171.8,157.7,156.5,153.2,159.3z"/>
			</g>
			<g>
				<path class="st4" d="M146.3,169.2c-1.4,0.2-2.5,3.4-2.8,4.4c-0.1,0.2,0.1,0.5,0.3,0.5c0,0,0.1,0,0.1,0c0.2,0,0.3-0.1,0.4-0.3
					c0.5-1.7,1.5-3.7,2.1-3.8c1-0.2,2.1,0.7,2.1,0.7c0.2,0.1,0.5,0.1,0.6-0.1c0.1-0.2,0.1-0.5-0.1-0.6
					C149.1,170,147.7,169,146.3,169.2z"/>
			</g>
			<g>
				<path class="st4" d="M156.3,168.4c-1.3-0.3-2.6,1.4-2.8,1.6c-0.1,0.2-0.1,0.5,0.1,0.6c0.2,0.1,0.5,0.1,0.6-0.1
					c0.4-0.5,1.3-1.4,1.9-1.3c0.6,0.2,1.6,1.5,2.1,2.3c0.1,0.1,0.2,0.2,0.4,0.2c0.1,0,0.1,0,0.2-0.1c0.2-0.1,0.3-0.4,0.2-0.6
					C158.8,170.8,157.5,168.6,156.3,168.4z"/>
			</g>
			<g>
				<path class="st4" d="M154.2,180.9l-0.9-7.7c0-0.2-0.2-0.3-0.4-0.3c-0.2,0-0.3,0.2-0.3,0.4l1,8.4l0.4-0.1
					c0.8-0.2,2.2-0.5,2.7-0.1c0.1,0.1,0.1,0.2,0.1,0.3c0.1,1.2-1.2,3.2-1.3,3.2c-0.1,0.1-0.1,0.3,0.1,0.4c0.1,0,0.1,0.1,0.2,0.1
					c0.1,0,0.2,0,0.3-0.1c0.1-0.1,1.5-2.1,1.4-3.6c0-0.3-0.2-0.6-0.4-0.8C156.3,180.4,154.9,180.7,154.2,180.9z"/>
			</g>
			<g>
				<path class="st4" d="M147.7,186.4c0,5.1,5.8,8.6,9.5,3.1C153,190,149.8,189.1,147.7,186.4z"/>
			</g>
			<g>
				<g>
					<g>
						<path class="st4" d="M147.9,178c0.2,2.1,2.1,2,1.9-0.2C149.5,175.7,147.6,175.9,147.9,178z"/>
					</g>
				</g>
			</g>
			<g>
				<g>
					<g>
						<path class="st4" d="M155.8,176.7c0.1,1.8,2,1.6,1.9-0.1C157.6,174.8,155.7,174.9,155.8,176.7z"/>
					</g>
				</g>
			</g>
		</g>
		<g>
			<path class="st15" d="M136,157.3c-10.2,3.3-9.1,11.5-9,11.6c0,0.2,0.2,0.3,0.3,0.3c0,0,0,0,0,0c0.2,0,0.3-0.2,0.3-0.4
				c0-0.3-1.1-7.7,8.6-10.8c0.2-0.1,0.3-0.2,0.2-0.4C136.3,157.4,136.1,157.3,136,157.3z"/>
		</g>
		<g>
			<path class="st15" d="M131.1,157.7c-2.6,1.3-4.9,5.3-4.2,9.2c0,0.2,0.2,0.3,0.3,0.3c0,0,0,0,0.1,0c0.2,0,0.3-0.2,0.3-0.4
				c-0.6-3.6,1.5-7.4,3.9-8.5c0.8-0.4,1.8-0.6,2.7,0.3c0.1,0.1,0.3,0.1,0.4,0s0.1-0.3,0-0.4C133.7,157.1,132.4,157,131.1,157.7z"/>
		</g>
	</g>
	<g>
		<path class="st14" d="M163.2,203.7c-2.9-2.5-9.6-3-17.8-1.7s-21.1,21.8-21.1,21.8c1.3,3.9,3.8,6.8,7.3,9l7.8-8.1
			c-0.5,18.5,0.5,32.5-3.6,48.9c27.2,9.9,39.1,0,39.1,0c-1.9-19-3.7-37.3-4.8-47.8c6.1-2,6.6-5.6,6.6-5.6S166.1,206.2,163.2,203.7z"
			/>
	</g>
	<g>
		<path class="st4" d="M146.6,201.8c1.7,2.3,5.9,7.6,8.3,7c2.2-0.6,2.9-4.7,3.1-7.1C155,201.2,151,201.2,146.6,201.8z"/>
	</g>
	<g>
		<path class="st4" d="M159.4,201.1c-0.1,0-0.2,0.1-0.2,0.2c0,0.1-0.4,8.5-4.1,9c-3.8,0.5-10.2-8.2-10.2-8.3c-0.1-0.1-0.2-0.1-0.3,0
			c-0.1,0.1-0.1,0.2,0,0.3c0.3,0.4,6.2,8.5,10.3,8.5c0.1,0,0.3,0,0.4,0c4.1-0.6,4.5-9,4.5-9.4C159.6,201.2,159.5,201.1,159.4,201.1z
			"/>
	</g>
	<path class="st15" d="M168.7,286.7l-15.4,3.6c-0.2,0.1-0.4,0.3-0.3,0.5c0,0.2,0.2,0.3,0.4,0.3c0,0,0.1,0,0.1,0l5.8-1.4l-1.8,113.1
		c0,0.2,0.2,0.4,0.4,0.4c0,0,0,0,0,0c0.2,0,0.4-0.2,0.4-0.4l1.8-113.3l8.8-2.1c0.2-0.1,0.4-0.3,0.3-0.5
		C169.2,286.8,168.9,286.7,168.7,286.7z"/>
	<g>
		<path class="st8" d="M164.4,212.7c-0.7,0,1.8,7.8-6.8,8.7s-13.5-4.4-14.1-2.5s-4.2,5.7-4.2,5.7c-0.5,18.5,0.5,32.5-3.6,48.9
			c27.2,9.9,39.1,0,39.1,0c-1.9-19-3.7-37.3-4.8-47.8C170.1,225.8,165.2,212.7,164.4,212.7z"/>
	</g>
	<g>
		<path class="st12" d="M124.3,223.8c0,0-34.5,40.1-37.4,41.6c-2.9,1.5-19.9,9.2-19.6,10.3c0.3,1.2,10.6-1.2,10.6-1.2
			s-0.1,4.2,0.7,5.3s3.3,1.4,3.3,1.4c2.2,3.2,10.9-2,12.3-3.7c1.4-1.8,0.7-8.9,0.7-8.9l36.7-35.7C129,229.6,126.6,226.6,124.3,223.8
			z"/>
	</g>
	<g>
		<path class="st4" d="M76.7,274.5c-0.1,0-0.2,0.1-0.2,0.2s0.1,0.2,0.2,0.2c4.6-0.9,9.7-1.6,10.1-1.1c0,0.7-3.2,4.8-5.2,7.2
			c-0.1,0.1-0.1,0.2,0,0.3c0,0,0.1,0,0.1,0c0.1,0,0.1,0,0.2-0.1c0.9-1.1,5.4-6.5,5.3-7.5c0-0.1,0-0.2-0.2-0.3
			C86.2,272.7,78.3,274.2,76.7,274.5z"/>
	</g>
	<g>
		<path class="st4" d="M80.2,275.7c-0.1,0-0.2,0.2-0.1,0.3c0,0.1,0.2,0.2,0.3,0.1c1.1-0.4,4-1.4,4.7-0.6c0.2,0.2,0.2,0.7-0.1,1.3
			c0,0.1,0,0.2,0.1,0.3c0,0,0.1,0,0.1,0c0.1,0,0.2,0,0.2-0.1c0.4-0.8,0.3-1.4,0-1.8C84.3,274.1,80.6,275.5,80.2,275.7z"/>
	</g>
	<g>
		<path class="st8" d="M77.9,274.5c0,0-0.1,4.2,0.7,5.3s3.3,1.4,3.3,1.4s5.4-6.5,5.2-7.4C87,272.9,78.3,274.3,77.9,274.5z"/>
	</g>
	<g>
		<path class="st15" d="M157.9,405.1c-0.2,0-0.4,0.2-0.4,0.5c0.4,4.5,1.4,16.3,1.4,16.7c0,0.2,0.2,0.4,0.4,0.4c0,0,0,0,0,0
			c0.2,0,0.4-0.2,0.4-0.4c0-0.4-1.3-15.1-1.4-16.7C158.3,405.2,158.1,405.1,157.9,405.1z"/>
	</g>
	<g>
		<g>
			<path class="st6" d="M173,223.2l-5-0.1l-0.1-1.6l-20.6-0.4c-3.7,13.6-5.8,27.6-6.8,41.9h2v0.8h2l-0.2,1l24.2-0.4
				c2.7-10.8,5.9-23.4,9.6-35.4c-2.3-1.7-5.4-1.8-5.4-1.8L173,223.2z"/>
		</g>
		<g>
			<path class="st4" d="M172.7,227c-0.1,0-11.4-1.4-21.1-0.9l-0.2,0l-7.2,37.7c0,0.2,0.1,0.3,0.3,0.4c0,0,0,0,0.1,0
				c0.1,0,0.3-0.1,0.3-0.3l7.1-37.2c9.6-0.4,20.6,0.9,20.8,0.9c0.2,0,0.3-0.1,0.4-0.3C173,227.2,172.8,227,172.7,227z"/>
		</g>
		<g>
			<path class="st4" d="M173,222.9l-23-0.1l-7.9,40.2c0,0.2,0.1,0.3,0.3,0.4c0,0,0,0,0.1,0c0.1,0,0.3-0.1,0.3-0.3l7.8-39.7l22.4,0.1
				h0c0.2,0,0.3-0.1,0.3-0.3C173.3,223,173.2,222.9,173,222.9z"/>
		</g>
	</g>
	<g>
		<path class="st12" d="M175.8,246.3c-11.6-1-18.9-0.4-21.9-1c-1-0.2-2.1-0.5-3.1-0.9c-0.1-0.1-4.5-4-5.2-4c-0.8,0-3.2,1.6-3.2,1.6
			l0,0c-2-0.1-4.2,0-4.5,0.9c-0.5,1.6,1.4,4,0.7,5.9s0.1,3.9,0.7,4.8c0.6,0.9,1,3.4,2.2,3.8c1.2,0.4,10.6-0.8,10.6-0.8
			s16.2,0.8,21.1,1.4c12.8,1.5,15.7-2,16-6.5C189.6,247,182.6,246.9,175.8,246.3z"/>
	</g>
	<g>
		<path class="st4" d="M184.8,247c-9.9-1.9-30.6-2-30.9-2c0,0,0,0,0,0c-0.2,0-0.3,0.1-0.3,0.3c0,0.2,0.1,0.3,0.3,0.3
			c0.2,0,20.9,0.1,30.7,2c0,0,0,0,0.1,0c0.1,0,0.3-0.1,0.3-0.3C185.1,247.2,185,247.1,184.8,247z"/>
	</g>
</g>
</svg>
